M48
; DRILL file {KiCad 9.0.4} date 2025-09-03T14:58:54+0530
; FORMAT={-:-/ absolute / metric / decimal}
; #@! TF.CreationDate,2025-09-03T14:58:54+05:30
; #@! TF.GenerationSoftware,Kicad,Pcbnew,9.0.4
; #@! TF.FileFunction,Plated,1,2,PTH
FMAT,2
METRIC
; #@! TA.AperFunction,Plated,PTH,ViaDrill
T1C0.300
; #@! TA.AperFunction,Plated,PTH,ComponentDrill
T2C1.000
%
G90
G05
T1
X122.0Y-123.7
X122.9Y-135.0
X122.95Y-122.75
X123.4Y-146.2
X123.7Y-144.6
X124.15Y-121.55
X124.3Y-129.6
X124.4Y-127.4
X124.5Y-132.9
X126.1Y-141.3
X127.2Y-132.9
X127.7Y-139.0
X127.8Y-142.5
X128.25Y-139.8
X128.3Y-129.2
X128.4Y-137.2
X128.735Y-142.302
X130.0Y-145.1
X130.2Y-141.4
X130.9Y-122.3
X131.771Y-122.471
X131.9Y-131.0
X132.5Y-145.1
X132.6Y-142.3
X132.7Y-123.6
X132.754Y-126.695
X132.942Y-139.7
X133.1Y-136.1
X133.3Y-135.2
X133.45Y-142.7
X133.675Y-127.5
X133.8Y-128.7
X134.2Y-145.3
X134.3Y-142.3
X134.525Y-127.5
X134.638Y-122.3
X134.825Y-129.753
X135.4Y-139.8
X135.675Y-129.753
X135.9Y-122.5
X136.5Y-125.1
X136.5Y-135.3
X137.6Y-134.8
X138.0Y-137.8
X138.2Y-140.7
X138.4Y-134.0
X138.71Y-133.263
X139.7Y-141.4
X139.8Y-143.2
X140.3Y-134.7
X141.1Y-140.7
X141.4Y-126.5
X142.2Y-145.4
X142.7Y-126.5
X142.7Y-135.5
X143.933Y-129.7
X144.5Y-121.9
T2
X125.773Y-147.5
X128.313Y-147.5
X130.853Y-147.5
X133.393Y-147.5
X135.933Y-147.5
X138.473Y-147.5
X141.013Y-147.5
M30
