%TF.GenerationSoftware,KiCad,Pcbnew,9.0.4*%
%TF.CreationDate,2025-09-03T14:58:50+05:30*%
%TF.ProjectId,usb-c serieal kicad,7573622d-6320-4736-9572-6965616c206b,rev?*%
%TF.SameCoordinates,Original*%
%TF.FileFunction,Copper,L2,Bot*%
%TF.FilePolarity,Positive*%
%FSLAX46Y46*%
G04 Gerber Fmt 4.6, Leading zero omitted, Abs format (unit mm)*
G04 Created by KiCad (PCBNEW 9.0.4) date 2025-09-03 14:58:50*
%MOMM*%
%LPD*%
G01*
G04 APERTURE LIST*
%TA.AperFunction,Conductor*%
%ADD10C,0.200000*%
%TD*%
%TA.AperFunction,SMDPad,CuDef*%
%ADD11R,0.700000X1.150000*%
%TD*%
%TA.AperFunction,SMDPad,CuDef*%
%ADD12R,0.380000X1.000000*%
%TD*%
%TA.AperFunction,ComponentPad*%
%ADD13R,1.700000X1.700000*%
%TD*%
%TA.AperFunction,ComponentPad*%
%ADD14C,1.700000*%
%TD*%
%TA.AperFunction,ViaPad*%
%ADD15C,0.600000*%
%TD*%
%TA.AperFunction,Conductor*%
%ADD16C,0.500000*%
%TD*%
%TA.AperFunction,Conductor*%
%ADD17C,0.300000*%
%TD*%
G04 APERTURE END LIST*
D10*
%TO.N,GND*%
X128400000Y-120000000D02*
X128400000Y-121000000D01*
X128781164Y-121381164D01*
X130218836Y-121381164D01*
X130600000Y-121000000D01*
X130600000Y-120725526D01*
X130700000Y-120725526D01*
X130700000Y-120900000D01*
X130700000Y-121700000D01*
X131150681Y-122150681D01*
X131150681Y-122750681D01*
X131621190Y-123221190D01*
X134778810Y-123221190D01*
X136063568Y-121936432D01*
X136063568Y-120729310D01*
X136168401Y-120729310D01*
X136168401Y-121068401D01*
X136400000Y-121300000D01*
X136532342Y-121432342D01*
X137867658Y-121432342D01*
X139600000Y-119700000D01*
X139742251Y-119700000D01*
X144200000Y-119700000D01*
X144500000Y-120000000D01*
X144500000Y-120800000D01*
X143800000Y-121500000D01*
X143800000Y-123100000D01*
X143215613Y-123684387D01*
X133515613Y-123684387D01*
X131900000Y-125300000D01*
X131900000Y-127200000D01*
X132800000Y-128100000D01*
X133500000Y-128100000D01*
X134200000Y-128800000D01*
X134200000Y-130100000D01*
X134500000Y-130400000D01*
X134500000Y-130600000D01*
X134600000Y-130700000D01*
X134130110Y-130700000D01*
X132730110Y-129300000D01*
X130200000Y-129300000D01*
X128800000Y-130700000D01*
X125700000Y-130700000D01*
X125179180Y-130179180D01*
X125179180Y-129236058D01*
X124804831Y-128861709D01*
X123838291Y-128861709D01*
X123400000Y-129300000D01*
X123400000Y-131100000D01*
X124600000Y-132300000D01*
X127500000Y-132300000D01*
X128300000Y-133100000D01*
X128300000Y-135300000D01*
X127200000Y-136400000D01*
X127200000Y-137500000D01*
X128000000Y-138240768D01*
X127066171Y-138240768D01*
X126300000Y-139004000D01*
X126300000Y-141648543D01*
X125800000Y-142209474D01*
X125800000Y-143991187D01*
X126754358Y-145060930D01*
X126751873Y-148458551D01*
X122798305Y-148458551D01*
X122793844Y-146500000D01*
X121400000Y-146500000D01*
X120700000Y-145800000D01*
X120700000Y-141900000D01*
X121300000Y-141300000D01*
X123200000Y-141300000D01*
X124800000Y-139700000D01*
X124800000Y-137300000D01*
X123400000Y-135900000D01*
X121200000Y-135900000D01*
X120900000Y-135600000D01*
X120900000Y-123600000D01*
X123100000Y-121400000D01*
X123500000Y-121400000D01*
X123800000Y-121100000D01*
X123800000Y-120100000D01*
X124500000Y-119400000D01*
X127800000Y-119400000D01*
X128400000Y-120000000D01*
%TA.AperFunction,Conductor*%
G36*
X128400000Y-120000000D02*
G01*
X128400000Y-121000000D01*
X128781164Y-121381164D01*
X130218836Y-121381164D01*
X130600000Y-121000000D01*
X130600000Y-120725526D01*
X130700000Y-120725526D01*
X130700000Y-120900000D01*
X130700000Y-121700000D01*
X131150681Y-122150681D01*
X131150681Y-122750681D01*
X131621190Y-123221190D01*
X134778810Y-123221190D01*
X136063568Y-121936432D01*
X136063568Y-120729310D01*
X136168401Y-120729310D01*
X136168401Y-121068401D01*
X136400000Y-121300000D01*
X136532342Y-121432342D01*
X137867658Y-121432342D01*
X139600000Y-119700000D01*
X139742251Y-119700000D01*
X144200000Y-119700000D01*
X144500000Y-120000000D01*
X144500000Y-120800000D01*
X143800000Y-121500000D01*
X143800000Y-123100000D01*
X143215613Y-123684387D01*
X133515613Y-123684387D01*
X131900000Y-125300000D01*
X131900000Y-127200000D01*
X132800000Y-128100000D01*
X133500000Y-128100000D01*
X134200000Y-128800000D01*
X134200000Y-130100000D01*
X134500000Y-130400000D01*
X134500000Y-130600000D01*
X134600000Y-130700000D01*
X134130110Y-130700000D01*
X132730110Y-129300000D01*
X130200000Y-129300000D01*
X128800000Y-130700000D01*
X125700000Y-130700000D01*
X125179180Y-130179180D01*
X125179180Y-129236058D01*
X124804831Y-128861709D01*
X123838291Y-128861709D01*
X123400000Y-129300000D01*
X123400000Y-131100000D01*
X124600000Y-132300000D01*
X127500000Y-132300000D01*
X128300000Y-133100000D01*
X128300000Y-135300000D01*
X127200000Y-136400000D01*
X127200000Y-137500000D01*
X128000000Y-138240768D01*
X127066171Y-138240768D01*
X126300000Y-139004000D01*
X126300000Y-141648543D01*
X125800000Y-142209474D01*
X125800000Y-143991187D01*
X126754358Y-145060930D01*
X126751873Y-148458551D01*
X122798305Y-148458551D01*
X122793844Y-146500000D01*
X121400000Y-146500000D01*
X120700000Y-145800000D01*
X120700000Y-141900000D01*
X121300000Y-141300000D01*
X123200000Y-141300000D01*
X124800000Y-139700000D01*
X124800000Y-137300000D01*
X123400000Y-135900000D01*
X121200000Y-135900000D01*
X120900000Y-135600000D01*
X120900000Y-123600000D01*
X123100000Y-121400000D01*
X123500000Y-121400000D01*
X123800000Y-121100000D01*
X123800000Y-120100000D01*
X124500000Y-119400000D01*
X127800000Y-119400000D01*
X128400000Y-120000000D01*
G37*
%TD.AperFunction*%
%TD*%
D11*
%TO.P,P1,S1,SHIELD*%
%TO.N,GND*%
X136807868Y-121967868D03*
D12*
%TO.P,P1,B12,GND*%
X130637868Y-121127868D03*
%TO.P,P1,B11,RX1+*%
%TO.N,unconnected-(P1-RX1+-PadB11)*%
X131137868Y-121127868D03*
%TO.P,P1,B10,RX1-*%
%TO.N,unconnected-(P1-RX1--PadB10)*%
X131637868Y-121127868D03*
%TO.P,P1,B9,VBUS*%
%TO.N,Net-(U1-VBUS)*%
X132137868Y-121127868D03*
%TO.P,P1,B8,SBU2*%
%TO.N,unconnected-(P1-SBU2-PadB8)*%
X132637868Y-121127868D03*
%TO.P,P1,B5,VCONN*%
%TO.N,unconnected-(P1-VCONN-PadB5)*%
X134137868Y-121127868D03*
%TO.P,P1,B4,VBUS*%
%TO.N,Net-(U1-VBUS)*%
X134637868Y-121127868D03*
%TO.P,P1,B3,TX2-*%
%TO.N,unconnected-(P1-TX2--PadB3)*%
X135137868Y-121127868D03*
%TO.P,P1,B2,TX2+*%
%TO.N,unconnected-(P1-TX2+-PadB2)*%
X135637868Y-121127868D03*
%TO.P,P1,B1,GND*%
%TO.N,GND*%
X136137868Y-121127868D03*
%TD*%
D13*
%TO.P,J1,1*%
%TO.N,+5V_USB*%
X141012868Y-147500000D03*
D14*
%TO.P,J1,2*%
%TO.N,/CTS*%
X138472868Y-147500000D03*
%TO.P,J1,3*%
%TO.N,/RTS*%
X135932868Y-147500000D03*
%TO.P,J1,4*%
%TO.N,/VREF*%
X133392868Y-147500000D03*
%TO.P,J1,5*%
%TO.N,/TX*%
X130852868Y-147500000D03*
%TO.P,J1,6*%
%TO.N,/RX*%
X128312868Y-147500000D03*
%TO.P,J1,7*%
%TO.N,GND*%
X125772868Y-147500000D03*
%TD*%
D15*
%TO.N,+5V_USB*%
X138200000Y-140700000D03*
X140300000Y-134700000D03*
X128400000Y-137200000D03*
X124300000Y-129600000D03*
%TO.N,GND*%
X123400000Y-146200000D03*
X133300000Y-135200000D03*
X128300000Y-129200000D03*
X127200000Y-132900000D03*
X130900000Y-122300000D03*
X123700000Y-144600000D03*
X122950000Y-122750000D03*
X135900000Y-122500000D03*
X130200000Y-141400000D03*
X124500000Y-132900000D03*
X135400000Y-139800000D03*
X138000000Y-137800000D03*
X124150000Y-121550000D03*
X142700000Y-135500000D03*
X127800000Y-142500000D03*
X124400000Y-127400000D03*
X122900000Y-135000000D03*
X141400000Y-126500000D03*
X122000000Y-123700000D03*
X126100000Y-141300000D03*
X136500000Y-125100000D03*
X132700000Y-123600000D03*
X133800000Y-128700000D03*
%TO.N,+3.3V*%
X144500000Y-121900000D03*
X139800000Y-143200000D03*
X133100000Y-136100000D03*
X131900000Y-131000000D03*
X132753903Y-126695167D03*
X130000000Y-145100000D03*
X127700000Y-139000000D03*
%TO.N,Net-(T1-C)*%
X142200000Y-145400000D03*
X132942007Y-139700000D03*
%TO.N,/CTS*%
X134300000Y-142300000D03*
%TO.N,/RX*%
X132600000Y-142300000D03*
%TO.N,/RTS*%
X134200000Y-145300000D03*
%TO.N,Net-(U1-VBUS)*%
X131771019Y-122471019D03*
X134637868Y-122300000D03*
%TO.N,/D-*%
X134825000Y-129752617D03*
X134525000Y-127500000D03*
%TO.N,/D+*%
X133675000Y-127500000D03*
X135675000Y-129752617D03*
%TO.N,Net-(U2-+IN)*%
X142700000Y-126500000D03*
X141100000Y-140700000D03*
%TO.N,Net-(U2--IN)*%
X143933178Y-129700000D03*
X139700000Y-141400000D03*
%TO.N,/TX_3V3*%
X128250000Y-139800000D03*
X138710037Y-133262520D03*
%TO.N,/RTS_3V3*%
X128735130Y-142302045D03*
X137600000Y-134800000D03*
%TO.N,/CTS_3V3*%
X132500000Y-145100000D03*
X136500000Y-135300000D03*
%TO.N,/RX_3V3*%
X133450227Y-142700000D03*
X138400000Y-134000000D03*
%TD*%
D16*
%TO.N,+5V_USB*%
X138900000Y-142300000D02*
X138200000Y-141600000D01*
D17*
X129500000Y-131900000D02*
X129000000Y-131400000D01*
D16*
X140300000Y-138100000D02*
X140300000Y-132232713D01*
X139447770Y-131380483D02*
X133570817Y-131380483D01*
X133570817Y-131380483D02*
X132290334Y-130100000D01*
X132290334Y-130100000D02*
X130800000Y-130100000D01*
X143500000Y-143500000D02*
X142300000Y-142300000D01*
X143500000Y-146700000D02*
X143500000Y-143500000D01*
X129000000Y-131400000D02*
X129500000Y-131400000D01*
X140300000Y-132232713D02*
X139447770Y-131380483D01*
X141012868Y-147500000D02*
X142700000Y-147500000D01*
X124300000Y-130600000D02*
X125100000Y-131400000D01*
X138200000Y-141600000D02*
X138200000Y-140200000D01*
X125100000Y-131400000D02*
X129000000Y-131400000D01*
X130800000Y-130100000D02*
X129500000Y-131400000D01*
X138200000Y-140200000D02*
X140300000Y-138100000D01*
X129500000Y-136100000D02*
X128400000Y-137200000D01*
X142700000Y-147500000D02*
X143500000Y-146700000D01*
X129500000Y-131400000D02*
X129500000Y-131900000D01*
X129500000Y-131900000D02*
X129500000Y-136100000D01*
X124300000Y-129600000D02*
X124300000Y-130600000D01*
X142300000Y-142300000D02*
X138900000Y-142300000D01*
D10*
%TO.N,GND*%
X130900000Y-122300000D02*
X130600000Y-122000000D01*
D16*
X135400000Y-139800000D02*
X137400000Y-137800000D01*
X131633986Y-135200000D02*
X133300000Y-135200000D01*
X141400000Y-129400000D02*
X141400000Y-126500000D01*
D10*
X130600000Y-122000000D02*
X130600000Y-121495348D01*
X136704604Y-122071132D02*
X136807868Y-121967868D01*
D16*
X129200000Y-128300000D02*
X128300000Y-129200000D01*
X144900000Y-127300000D02*
X143200000Y-125600000D01*
X134500000Y-130600000D02*
X140200000Y-130600000D01*
D10*
X135700000Y-122500000D02*
X136128868Y-122071132D01*
D16*
X133800000Y-128700000D02*
X133400000Y-128300000D01*
X127000000Y-138100000D02*
X128733986Y-138100000D01*
X141400000Y-126500000D02*
X137300000Y-126500000D01*
X133800000Y-128700000D02*
X133800000Y-129900000D01*
X129400000Y-143300000D02*
X130200000Y-142500000D01*
X127800000Y-142921190D02*
X128178810Y-143300000D01*
X126100000Y-139000000D02*
X127000000Y-138100000D01*
X142700000Y-135500000D02*
X142700000Y-132400000D01*
D10*
X136128868Y-122071132D02*
X136704604Y-122071132D01*
D16*
X127800000Y-142500000D02*
X127800000Y-142921190D01*
X142700000Y-132400000D02*
X144900000Y-130200000D01*
X128178810Y-143300000D02*
X129400000Y-143300000D01*
X137300000Y-126500000D02*
X136500000Y-125700000D01*
X137400000Y-137800000D02*
X138000000Y-137800000D01*
X143200000Y-125600000D02*
X142300000Y-125600000D01*
X140200000Y-130600000D02*
X141400000Y-129400000D01*
X142300000Y-125600000D02*
X141400000Y-126500000D01*
X133800000Y-129900000D02*
X134500000Y-130600000D01*
X133400000Y-128300000D02*
X129200000Y-128300000D01*
X144900000Y-130200000D02*
X144900000Y-127300000D01*
X130200000Y-142500000D02*
X130200000Y-141400000D01*
X136500000Y-125700000D02*
X136500000Y-125100000D01*
D10*
X136128868Y-122071132D02*
X136128868Y-121600000D01*
D16*
X128733986Y-138100000D02*
X131633986Y-135200000D01*
%TO.N,+3.3V*%
X139518587Y-132706784D02*
X138967378Y-132155575D01*
X127533828Y-144350185D02*
X129250185Y-144350185D01*
X131811058Y-136100000D02*
X133100000Y-136100000D01*
X139518587Y-137581413D02*
X139518587Y-132706784D01*
X127055390Y-141851487D02*
X126600000Y-142306877D01*
X129250185Y-144350185D02*
X130000000Y-145100000D01*
X128911058Y-139000000D02*
X131811058Y-136100000D01*
X134300000Y-132600000D02*
X134300000Y-132155575D01*
D17*
X134300000Y-132600000D02*
X134300000Y-132555575D01*
D16*
X134700000Y-132155575D02*
X133900000Y-132155575D01*
X139800000Y-143200000D02*
X138400000Y-143200000D01*
X138967378Y-132155575D02*
X134700000Y-132155575D01*
X127700000Y-139000000D02*
X127055390Y-139644610D01*
X144500000Y-121900000D02*
X144500000Y-123300000D01*
X138400000Y-143200000D02*
X137200000Y-142000000D01*
X127700000Y-139000000D02*
X128911058Y-139000000D01*
X127055390Y-139644610D02*
X127055390Y-141851487D01*
X137200000Y-142000000D02*
X137200000Y-139900000D01*
X126600000Y-142306877D02*
X126600000Y-143416357D01*
X134300000Y-135401300D02*
X134300000Y-132600000D01*
X143522305Y-124277695D02*
X134122305Y-124277695D01*
X144500000Y-123300000D02*
X143522305Y-124277695D01*
X134122305Y-124277695D02*
X132753903Y-125646097D01*
X137200000Y-139900000D02*
X139518587Y-137581413D01*
X126600000Y-143416357D02*
X127533828Y-144350185D01*
X132753903Y-125646097D02*
X132753903Y-126695167D01*
D17*
X134300000Y-132555575D02*
X133900000Y-132155575D01*
D16*
X133055575Y-132155575D02*
X131900000Y-131000000D01*
X133100000Y-136100000D02*
X133601300Y-136100000D01*
D17*
X134300000Y-132555575D02*
X134700000Y-132155575D01*
D16*
X133601300Y-136100000D02*
X134300000Y-135401300D01*
X133900000Y-132155575D02*
X133055575Y-132155575D01*
D17*
%TO.N,Net-(T1-C)*%
X132942007Y-139700000D02*
X132950000Y-139700000D01*
X138650000Y-145400000D02*
X142200000Y-145400000D01*
X132950000Y-139700000D02*
X138650000Y-145400000D01*
%TO.N,/CTS*%
X138474256Y-147498612D02*
X138472868Y-147500000D01*
X138474256Y-146474256D02*
X138474256Y-147498612D01*
X134300000Y-142300000D02*
X138474256Y-146474256D01*
%TO.N,/RX*%
X133400000Y-145500000D02*
X133000000Y-145900000D01*
X129912868Y-145900000D02*
X128312868Y-147500000D01*
X132600000Y-143600000D02*
X133400000Y-144400000D01*
X132600000Y-142300000D02*
X132600000Y-143600000D01*
X133000000Y-145900000D02*
X129912868Y-145900000D01*
X133400000Y-144400000D02*
X133400000Y-145500000D01*
%TO.N,/RTS*%
X135932868Y-147500000D02*
X135932868Y-146132868D01*
X135932868Y-146132868D02*
X135100000Y-145300000D01*
X135100000Y-145300000D02*
X134200000Y-145300000D01*
D10*
%TO.N,Net-(U1-VBUS)*%
X134170954Y-122766914D02*
X134637868Y-122300000D01*
X131771019Y-122471019D02*
X132066914Y-122766914D01*
X132137868Y-122104170D02*
X132137868Y-121127868D01*
X134637868Y-122300000D02*
X134637868Y-121127868D01*
X132066914Y-122766914D02*
X134170954Y-122766914D01*
X131771019Y-122471019D02*
X132137868Y-122104170D01*
%TO.N,/D-*%
X134564369Y-126503829D02*
X135510385Y-126503829D01*
X135926732Y-126920176D02*
X135926732Y-128005070D01*
X135024999Y-129552618D02*
X134825000Y-129752617D01*
X135024999Y-128906803D02*
X135024999Y-129552618D01*
X134525000Y-127500000D02*
X134325001Y-127300001D01*
X134325001Y-127300001D02*
X134325001Y-126743197D01*
X134325001Y-126743197D02*
X134564369Y-126503829D01*
X135510385Y-126503829D02*
X135926732Y-126920176D01*
X135926732Y-128005070D02*
X135024999Y-128906803D01*
%TO.N,/D+*%
X135475001Y-129552618D02*
X135675000Y-129752617D01*
X133874999Y-126556803D02*
X134377973Y-126053829D01*
X135475001Y-129093197D02*
X135475001Y-129552618D01*
X136376732Y-128191466D02*
X135475001Y-129093197D01*
X134377973Y-126053829D02*
X135696779Y-126053829D01*
X136376732Y-126733782D02*
X136376732Y-128191466D01*
X133874999Y-127300001D02*
X133874999Y-126556803D01*
X135696779Y-126053829D02*
X136376732Y-126733782D01*
X133675000Y-127500000D02*
X133874999Y-127300001D01*
D17*
%TO.N,Net-(U2-+IN)*%
X141100000Y-131400000D02*
X142700000Y-129800000D01*
X142700000Y-129800000D02*
X142700000Y-126500000D01*
X141100000Y-140700000D02*
X141100000Y-131400000D01*
%TO.N,Net-(U2--IN)*%
X141900000Y-131733178D02*
X143933178Y-129700000D01*
X141400000Y-141400000D02*
X141900000Y-140900000D01*
X139700000Y-141400000D02*
X141400000Y-141400000D01*
X141900000Y-140900000D02*
X141900000Y-131733178D01*
%TO.N,/TX_3V3*%
X135111152Y-134488848D02*
X135111152Y-135681412D01*
X128250000Y-139800000D02*
X128250000Y-139653594D01*
X136337480Y-133262520D02*
X135111152Y-134488848D01*
X138710037Y-133262520D02*
X136337480Y-133262520D01*
X133888104Y-136904460D02*
X132039591Y-136904460D01*
X132039591Y-136904460D02*
X129144051Y-139800000D01*
X135111152Y-135681412D02*
X133888104Y-136904460D01*
X128250000Y-139653594D02*
X128248203Y-139651797D01*
X129144051Y-139800000D02*
X128250000Y-139800000D01*
%TO.N,/RTS_3V3*%
X136345167Y-134298141D02*
X137098141Y-134298141D01*
X135757434Y-134885874D02*
X136345167Y-134298141D01*
X135757434Y-135946282D02*
X135757434Y-134885874D01*
X128735130Y-142302045D02*
X128735130Y-141035315D01*
X137098141Y-134298141D02*
X137600000Y-134800000D01*
X128735130Y-141035315D02*
X132187918Y-137582527D01*
X132187918Y-137582527D02*
X134121189Y-137582527D01*
X134121189Y-137582527D02*
X135757434Y-135946282D01*
%TO.N,/CTS_3V3*%
X131100000Y-143700000D02*
X131100000Y-139500000D01*
X132500000Y-145100000D02*
X131100000Y-143700000D01*
X131100000Y-139500000D02*
X132413569Y-138186431D01*
X134417843Y-138186431D02*
X136500000Y-136104274D01*
X136500000Y-136104274D02*
X136500000Y-135300000D01*
X132413569Y-138186431D02*
X134417843Y-138186431D01*
%TO.N,/RX_3V3*%
X132115613Y-139384387D02*
X132115613Y-140215613D01*
X138400000Y-133900000D02*
X138400000Y-135126021D01*
X133450227Y-142700000D02*
X133450227Y-142893680D01*
X132115613Y-140215613D02*
X133450227Y-141550227D01*
X132677882Y-138822118D02*
X132115613Y-139384387D01*
X138400000Y-135126021D02*
X134703903Y-138822118D01*
X133450227Y-141550227D02*
X133450227Y-142700000D01*
X134703903Y-138822118D02*
X132677882Y-138822118D01*
%TD*%
%TA.AperFunction,Conductor*%
%TO.N,/CTS*%
G36*
X138123369Y-145910870D02*
G01*
X138123564Y-145911056D01*
X138360033Y-146137010D01*
X138548067Y-146302843D01*
X138621170Y-146367852D01*
X138715858Y-146452055D01*
X138716617Y-146452794D01*
X138837973Y-146582227D01*
X138911067Y-146660185D01*
X138911779Y-146661020D01*
X139034165Y-146818891D01*
X139034520Y-146819374D01*
X139172810Y-147017989D01*
X139174725Y-147026736D01*
X139169893Y-147034276D01*
X139169719Y-147034395D01*
X138477611Y-147498003D01*
X138468831Y-147499760D01*
X138468810Y-147499756D01*
X137651619Y-147336651D01*
X137644177Y-147331671D01*
X137642435Y-147322887D01*
X137642647Y-147322005D01*
X137685934Y-147169197D01*
X137686509Y-147167617D01*
X137750732Y-147024293D01*
X137751300Y-147023190D01*
X137825434Y-146896518D01*
X137825751Y-146896010D01*
X137901870Y-146782074D01*
X137901870Y-146782073D01*
X137901892Y-146782087D01*
X137901918Y-146782003D01*
X137939372Y-146726866D01*
X138025102Y-146582229D01*
X138061439Y-146471687D01*
X138060003Y-146367852D01*
X138043514Y-146312221D01*
X138038893Y-146302875D01*
X138014798Y-146254137D01*
X138014795Y-146254132D01*
X138014795Y-146254131D01*
X137967757Y-146186825D01*
X137910423Y-146123353D01*
X137907420Y-146114916D01*
X137910831Y-146107238D01*
X138107014Y-145911055D01*
X138115286Y-145907629D01*
X138123369Y-145910870D01*
G37*
%TD.AperFunction*%
%TD*%
%TA.AperFunction,Conductor*%
%TO.N,/RX*%
G36*
X129405370Y-146211438D02*
G01*
X129601421Y-146407489D01*
X129604848Y-146415762D01*
X129601650Y-146423800D01*
X129494668Y-146536956D01*
X129494654Y-146536972D01*
X129406499Y-146644986D01*
X129406497Y-146644989D01*
X129340902Y-146743670D01*
X129293839Y-146837027D01*
X129293839Y-146837028D01*
X129261273Y-146929077D01*
X129239154Y-147023858D01*
X129239152Y-147023872D01*
X129210087Y-147237701D01*
X129200079Y-147324075D01*
X129200016Y-147324539D01*
X129148420Y-147653797D01*
X129143754Y-147661440D01*
X129135050Y-147663545D01*
X129134590Y-147663463D01*
X128319846Y-147502227D01*
X128312395Y-147497260D01*
X128310640Y-147493021D01*
X128149377Y-146678137D01*
X128151132Y-146669356D01*
X128158583Y-146664389D01*
X128158893Y-146664331D01*
X128382997Y-146626480D01*
X128383451Y-146626414D01*
X128575160Y-146602780D01*
X128827589Y-146565842D01*
X128907649Y-146539707D01*
X128990094Y-146512796D01*
X128990096Y-146512794D01*
X128990101Y-146512793D01*
X129073437Y-146469475D01*
X129161131Y-146411344D01*
X129272163Y-146321504D01*
X129389068Y-146211200D01*
X129397437Y-146208016D01*
X129405370Y-146211438D01*
G37*
%TD.AperFunction*%
%TD*%
%TA.AperFunction,Conductor*%
%TO.N,+5V_USB*%
G36*
X141860279Y-146669134D02*
G01*
X141863700Y-146677046D01*
X141864038Y-146688025D01*
X141874502Y-146768288D01*
X141874505Y-146768300D01*
X141894889Y-146843493D01*
X141894892Y-146843500D01*
X141927431Y-146920248D01*
X141927432Y-146920249D01*
X141927434Y-146920254D01*
X141969116Y-146990617D01*
X141969120Y-146990623D01*
X141969122Y-146990626D01*
X142024785Y-147061646D01*
X142087952Y-147124309D01*
X142163320Y-147183147D01*
X142242443Y-147231442D01*
X142323486Y-147269296D01*
X142402713Y-147295819D01*
X142528451Y-147313578D01*
X142535088Y-147316890D01*
X142866987Y-147648789D01*
X142870414Y-147657062D01*
X142866987Y-147665335D01*
X142859186Y-147668752D01*
X142848033Y-147669201D01*
X142743198Y-147682208D01*
X142743189Y-147682210D01*
X142624436Y-147708066D01*
X142624430Y-147708067D01*
X142624424Y-147708069D01*
X142545629Y-147734775D01*
X142388043Y-147788185D01*
X142388035Y-147788189D01*
X142188106Y-147890290D01*
X142039130Y-148001072D01*
X141939161Y-148114141D01*
X141881855Y-148228247D01*
X141866500Y-148323314D01*
X141861798Y-148330935D01*
X141853084Y-148332998D01*
X141846704Y-148329748D01*
X141840227Y-148323314D01*
X141020488Y-147508979D01*
X141017034Y-147500718D01*
X141020433Y-147492434D01*
X141843734Y-146669133D01*
X141852006Y-146665707D01*
X141860279Y-146669134D01*
G37*
%TD.AperFunction*%
%TD*%
%TA.AperFunction,Conductor*%
%TO.N,/RTS*%
G36*
X135823110Y-145811523D02*
G01*
X135823352Y-145811772D01*
X136016903Y-146018294D01*
X136017564Y-146019066D01*
X136121188Y-146151338D01*
X136153552Y-146192650D01*
X136154253Y-146193648D01*
X136173087Y-146223684D01*
X136250820Y-146347649D01*
X136251238Y-146348372D01*
X136334447Y-146504852D01*
X136334450Y-146504865D01*
X136334453Y-146504864D01*
X136432561Y-146689867D01*
X136633746Y-147018184D01*
X136635147Y-147027029D01*
X136630281Y-147034018D01*
X135937611Y-147498003D01*
X135928831Y-147499760D01*
X135928810Y-147499756D01*
X135111388Y-147336605D01*
X135103946Y-147331625D01*
X135102204Y-147322841D01*
X135102357Y-147322175D01*
X135126927Y-147228804D01*
X135127350Y-147227514D01*
X135165268Y-147131480D01*
X135165787Y-147130350D01*
X135212234Y-147042064D01*
X135212779Y-147041136D01*
X135265844Y-146959845D01*
X135266565Y-146958860D01*
X135385763Y-146813015D01*
X135386354Y-146812349D01*
X135509921Y-146684087D01*
X135617746Y-146572185D01*
X135708627Y-146454411D01*
X135750112Y-146356584D01*
X135753263Y-146260368D01*
X135738821Y-146207240D01*
X135711991Y-146151338D01*
X135711990Y-146151337D01*
X135711989Y-146151334D01*
X135711986Y-146151330D01*
X135693304Y-146124325D01*
X135666478Y-146085547D01*
X135666472Y-146085541D01*
X135666469Y-146085536D01*
X135610416Y-146023361D01*
X135607422Y-146014922D01*
X135610832Y-146007255D01*
X135806565Y-145811522D01*
X135814837Y-145808096D01*
X135823110Y-145811523D01*
G37*
%TD.AperFunction*%
%TD*%
M02*
