%TF.GenerationSoftware,KiCad,Pcbnew,9.0.4*%
%TF.CreationDate,2025-09-03T14:58:50+05:30*%
%TF.ProjectId,usb-c serieal kicad,7573622d-6320-4736-9572-6965616c206b,rev?*%
%TF.SameCoordinates,Original*%
%TF.FileFunction,Copper,L1,Top*%
%TF.FilePolarity,Positive*%
%FSLAX46Y46*%
G04 Gerber Fmt 4.6, Leading zero omitted, Abs format (unit mm)*
G04 Created by KiCad (PCBNEW 9.0.4) date 2025-09-03 14:58:50*
%MOMM*%
%LPD*%
G01*
G04 APERTURE LIST*
G04 Aperture macros list*
%AMRoundRect*
0 Rectangle with rounded corners*
0 $1 Rounding radius*
0 $2 $3 $4 $5 $6 $7 $8 $9 X,Y pos of 4 corners*
0 Add a 4 corners polygon primitive as box body*
4,1,4,$2,$3,$4,$5,$6,$7,$8,$9,$2,$3,0*
0 Add four circle primitives for the rounded corners*
1,1,$1+$1,$2,$3*
1,1,$1+$1,$4,$5*
1,1,$1+$1,$6,$7*
1,1,$1+$1,$8,$9*
0 Add four rect primitives between the rounded corners*
20,1,$1+$1,$2,$3,$4,$5,0*
20,1,$1+$1,$4,$5,$6,$7,0*
20,1,$1+$1,$6,$7,$8,$9,0*
20,1,$1+$1,$8,$9,$2,$3,0*%
G04 Aperture macros list end*
%TA.AperFunction,Conductor*%
%ADD10C,0.200000*%
%TD*%
%TA.AperFunction,SMDPad,CuDef*%
%ADD11R,0.700000X1.150000*%
%TD*%
%TA.AperFunction,SMDPad,CuDef*%
%ADD12R,0.380000X1.000000*%
%TD*%
%TA.AperFunction,SMDPad,CuDef*%
%ADD13RoundRect,0.250000X0.450000X-0.325000X0.450000X0.325000X-0.450000X0.325000X-0.450000X-0.325000X0*%
%TD*%
%TA.AperFunction,SMDPad,CuDef*%
%ADD14RoundRect,0.250000X0.325000X0.450000X-0.325000X0.450000X-0.325000X-0.450000X0.325000X-0.450000X0*%
%TD*%
%TA.AperFunction,SMDPad,CuDef*%
%ADD15RoundRect,0.250000X-0.475000X0.337500X-0.475000X-0.337500X0.475000X-0.337500X0.475000X0.337500X0*%
%TD*%
%TA.AperFunction,SMDPad,CuDef*%
%ADD16RoundRect,0.250000X-0.450000X0.350000X-0.450000X-0.350000X0.450000X-0.350000X0.450000X0.350000X0*%
%TD*%
%TA.AperFunction,SMDPad,CuDef*%
%ADD17RoundRect,0.250000X0.475000X-0.337500X0.475000X0.337500X-0.475000X0.337500X-0.475000X-0.337500X0*%
%TD*%
%TA.AperFunction,SMDPad,CuDef*%
%ADD18C,0.500000*%
%TD*%
%TA.AperFunction,SMDPad,CuDef*%
%ADD19RoundRect,0.087500X0.087500X-0.537500X0.087500X0.537500X-0.087500X0.537500X-0.087500X-0.537500X0*%
%TD*%
%TA.AperFunction,SMDPad,CuDef*%
%ADD20RoundRect,0.250000X0.450000X-0.350000X0.450000X0.350000X-0.450000X0.350000X-0.450000X-0.350000X0*%
%TD*%
%TA.AperFunction,SMDPad,CuDef*%
%ADD21RoundRect,0.250000X-0.350000X-0.450000X0.350000X-0.450000X0.350000X0.450000X-0.350000X0.450000X0*%
%TD*%
%TA.AperFunction,SMDPad,CuDef*%
%ADD22RoundRect,0.250000X0.337500X0.475000X-0.337500X0.475000X-0.337500X-0.475000X0.337500X-0.475000X0*%
%TD*%
%TA.AperFunction,ComponentPad*%
%ADD23R,1.700000X1.700000*%
%TD*%
%TA.AperFunction,ComponentPad*%
%ADD24C,1.700000*%
%TD*%
%TA.AperFunction,SMDPad,CuDef*%
%ADD25RoundRect,0.250000X0.350000X0.450000X-0.350000X0.450000X-0.350000X-0.450000X0.350000X-0.450000X0*%
%TD*%
%TA.AperFunction,SMDPad,CuDef*%
%ADD26RoundRect,0.150000X-0.150000X0.825000X-0.150000X-0.825000X0.150000X-0.825000X0.150000X0.825000X0*%
%TD*%
%TA.AperFunction,SMDPad,CuDef*%
%ADD27RoundRect,0.250000X-0.337500X-0.475000X0.337500X-0.475000X0.337500X0.475000X-0.337500X0.475000X0*%
%TD*%
%TA.AperFunction,SMDPad,CuDef*%
%ADD28RoundRect,0.093750X-0.093750X0.156250X-0.093750X-0.156250X0.093750X-0.156250X0.093750X0.156250X0*%
%TD*%
%TA.AperFunction,SMDPad,CuDef*%
%ADD29RoundRect,0.075000X-0.075000X0.250000X-0.075000X-0.250000X0.075000X-0.250000X0.075000X0.250000X0*%
%TD*%
%TA.AperFunction,SMDPad,CuDef*%
%ADD30RoundRect,0.162500X0.447500X0.162500X-0.447500X0.162500X-0.447500X-0.162500X0.447500X-0.162500X0*%
%TD*%
%TA.AperFunction,SMDPad,CuDef*%
%ADD31R,0.300000X0.300000*%
%TD*%
%TA.AperFunction,SMDPad,CuDef*%
%ADD32R,0.300000X0.900000*%
%TD*%
%TA.AperFunction,SMDPad,CuDef*%
%ADD33R,0.900000X0.300000*%
%TD*%
%TA.AperFunction,SMDPad,CuDef*%
%ADD34R,1.800000X1.800000*%
%TD*%
%TA.AperFunction,ViaPad*%
%ADD35C,0.600000*%
%TD*%
%TA.AperFunction,Conductor*%
%ADD36C,0.500000*%
%TD*%
%TA.AperFunction,Conductor*%
%ADD37C,0.300000*%
%TD*%
G04 APERTURE END LIST*
D10*
%TO.N,GND*%
X136000000Y-139700000D02*
X136000000Y-140100000D01*
X135009664Y-141090336D01*
X135009664Y-142090336D01*
X135000000Y-142100000D01*
X134400000Y-141500000D01*
X134381040Y-141500000D01*
X134381040Y-139718960D01*
X134700000Y-139400000D01*
X135700000Y-139400000D01*
X136000000Y-139700000D01*
%TA.AperFunction,Conductor*%
G36*
X136000000Y-139700000D02*
G01*
X136000000Y-140100000D01*
X135009664Y-141090336D01*
X135009664Y-142090336D01*
X135000000Y-142100000D01*
X134400000Y-141500000D01*
X134381040Y-141500000D01*
X134381040Y-139718960D01*
X134700000Y-139400000D01*
X135700000Y-139400000D01*
X136000000Y-139700000D01*
G37*
%TD.AperFunction*%
X133100000Y-123400000D02*
X133100000Y-123900000D01*
X132900000Y-124100000D01*
X132900000Y-124700000D01*
X133400000Y-125200000D01*
X133400000Y-125300000D01*
X132786246Y-125913754D01*
X131313754Y-125913754D01*
X131200000Y-125800000D01*
X131200000Y-124667658D01*
X132667658Y-123200000D01*
X132900000Y-123200000D01*
X133100000Y-123400000D01*
%TA.AperFunction,Conductor*%
G36*
X133100000Y-123400000D02*
G01*
X133100000Y-123900000D01*
X132900000Y-124100000D01*
X132900000Y-124700000D01*
X133400000Y-125200000D01*
X133400000Y-125300000D01*
X132786246Y-125913754D01*
X131313754Y-125913754D01*
X131200000Y-125800000D01*
X131200000Y-124667658D01*
X132667658Y-123200000D01*
X132900000Y-123200000D01*
X133100000Y-123400000D01*
G37*
%TD.AperFunction*%
X132200000Y-140000000D02*
X132200000Y-141000000D01*
X132200000Y-141700000D01*
X132000000Y-141900000D01*
X132000000Y-142900000D01*
X131800000Y-143100000D01*
X130200000Y-143100000D01*
X129700000Y-143600000D01*
X129700000Y-144500000D01*
X129300000Y-144500000D01*
X129294400Y-144500000D01*
X129292307Y-142828591D01*
X129400000Y-142700000D01*
X129400000Y-142000000D01*
X129190891Y-141690891D01*
X129190891Y-140148554D01*
X129539445Y-139800000D01*
X132000000Y-139800000D01*
X132200000Y-140000000D01*
%TA.AperFunction,Conductor*%
G36*
X132200000Y-140000000D02*
G01*
X132200000Y-141000000D01*
X132200000Y-141700000D01*
X132000000Y-141900000D01*
X132000000Y-142900000D01*
X131800000Y-143100000D01*
X130200000Y-143100000D01*
X129700000Y-143600000D01*
X129700000Y-144500000D01*
X129300000Y-144500000D01*
X129294400Y-144500000D01*
X129292307Y-142828591D01*
X129400000Y-142700000D01*
X129400000Y-142000000D01*
X129190891Y-141690891D01*
X129190891Y-140148554D01*
X129539445Y-139800000D01*
X132000000Y-139800000D01*
X132200000Y-140000000D01*
G37*
%TD.AperFunction*%
X127154054Y-142161452D02*
X127924203Y-142161452D01*
X128012102Y-142249351D01*
X128012102Y-142609930D01*
X127914597Y-142707435D01*
X127392565Y-142707435D01*
X127100000Y-143000000D01*
X126700000Y-143000000D01*
X126700000Y-141882413D01*
X126875015Y-141882413D01*
X127154054Y-142161452D01*
%TA.AperFunction,Conductor*%
G36*
X127154054Y-142161452D02*
G01*
X127924203Y-142161452D01*
X128012102Y-142249351D01*
X128012102Y-142609930D01*
X127914597Y-142707435D01*
X127392565Y-142707435D01*
X127100000Y-143000000D01*
X126700000Y-143000000D01*
X126700000Y-141882413D01*
X126875015Y-141882413D01*
X127154054Y-142161452D01*
G37*
%TD.AperFunction*%
X136200000Y-121100000D02*
X136450000Y-121350000D01*
X137780000Y-121350000D01*
X137900000Y-121500000D01*
X137900000Y-122300000D01*
X136800000Y-123400000D01*
X136800000Y-125395168D01*
X137180049Y-125775217D01*
X139275217Y-125775217D01*
X139400000Y-125900000D01*
X139400000Y-127000000D01*
X139300000Y-127100000D01*
X135800000Y-127100000D01*
X135754275Y-127100000D01*
X135754275Y-125645725D01*
X136200000Y-125200000D01*
X136200000Y-123443742D01*
X135677942Y-122921684D01*
X135677942Y-122222058D01*
X136042130Y-121857870D01*
X136042130Y-120700000D01*
X136200000Y-120700000D01*
X136200000Y-121100000D01*
%TA.AperFunction,Conductor*%
G36*
X136200000Y-121100000D02*
G01*
X136450000Y-121350000D01*
X137780000Y-121350000D01*
X137900000Y-121500000D01*
X137900000Y-122300000D01*
X136800000Y-123400000D01*
X136800000Y-125395168D01*
X137180049Y-125775217D01*
X139275217Y-125775217D01*
X139400000Y-125900000D01*
X139400000Y-127000000D01*
X139300000Y-127100000D01*
X135800000Y-127100000D01*
X135754275Y-127100000D01*
X135754275Y-125645725D01*
X136200000Y-125200000D01*
X136200000Y-123443742D01*
X135677942Y-122921684D01*
X135677942Y-122222058D01*
X136042130Y-121857870D01*
X136042130Y-120700000D01*
X136200000Y-120700000D01*
X136200000Y-121100000D01*
G37*
%TD.AperFunction*%
X126300000Y-126700000D02*
X126300000Y-127700000D01*
X127200000Y-128600000D01*
X128500000Y-128600000D01*
X128900000Y-128200000D01*
X128900000Y-127100000D01*
X129300000Y-126700000D01*
X130400000Y-126700000D01*
X130400000Y-130300000D01*
X130100000Y-130600000D01*
X128800000Y-130600000D01*
X126700000Y-128500000D01*
X124900000Y-128500000D01*
X124402684Y-128002684D01*
X122284303Y-128002684D01*
X122155596Y-127873977D01*
X122155596Y-126744404D01*
X122300000Y-126600000D01*
X126200000Y-126600000D01*
X126300000Y-126700000D01*
%TA.AperFunction,Conductor*%
G36*
X126300000Y-126700000D02*
G01*
X126300000Y-127700000D01*
X127200000Y-128600000D01*
X128500000Y-128600000D01*
X128900000Y-128200000D01*
X128900000Y-127100000D01*
X129300000Y-126700000D01*
X130400000Y-126700000D01*
X130400000Y-130300000D01*
X130100000Y-130600000D01*
X128800000Y-130600000D01*
X126700000Y-128500000D01*
X124900000Y-128500000D01*
X124402684Y-128002684D01*
X122284303Y-128002684D01*
X122155596Y-127873977D01*
X122155596Y-126744404D01*
X122300000Y-126600000D01*
X126200000Y-126600000D01*
X126300000Y-126700000D01*
G37*
%TD.AperFunction*%
X130723543Y-121789466D02*
X130893060Y-121958983D01*
X130893059Y-121958983D01*
X131115242Y-122181166D01*
X131115242Y-122395537D01*
X130948862Y-122561917D01*
X129752830Y-122561917D01*
X129111340Y-121920427D01*
X129548823Y-121300000D01*
X130300000Y-121300000D01*
X130600000Y-121000000D01*
X130600000Y-120728618D01*
X130723543Y-120728618D01*
X130723543Y-121789466D01*
%TA.AperFunction,Conductor*%
G36*
X130723543Y-121789466D02*
G01*
X130893060Y-121958983D01*
X130893059Y-121958983D01*
X131115242Y-122181166D01*
X131115242Y-122395537D01*
X130948862Y-122561917D01*
X129752830Y-122561917D01*
X129111340Y-121920427D01*
X129548823Y-121300000D01*
X130300000Y-121300000D01*
X130600000Y-121000000D01*
X130600000Y-120728618D01*
X130723543Y-120728618D01*
X130723543Y-121789466D01*
G37*
%TD.AperFunction*%
X126900000Y-139800000D02*
X126900000Y-141400000D01*
X126900000Y-142800000D01*
X126700000Y-143000000D01*
X125500000Y-143000000D01*
X125300000Y-142800000D01*
X125300000Y-141000000D01*
X125300000Y-139800000D01*
X125500000Y-139600000D01*
X126700000Y-139600000D01*
X126900000Y-139800000D01*
%TA.AperFunction,Conductor*%
G36*
X126900000Y-139800000D02*
G01*
X126900000Y-141400000D01*
X126900000Y-142800000D01*
X126700000Y-143000000D01*
X125500000Y-143000000D01*
X125300000Y-142800000D01*
X125300000Y-141000000D01*
X125300000Y-139800000D01*
X125500000Y-139600000D01*
X126700000Y-139600000D01*
X126900000Y-139800000D01*
G37*
%TD.AperFunction*%
X124200000Y-141707063D02*
X124200000Y-145200000D01*
X124800000Y-145800000D01*
X126200000Y-145800000D01*
X126700000Y-146300000D01*
X126700000Y-148300000D01*
X126700000Y-148400000D01*
X126400000Y-148700000D01*
X123500000Y-148700000D01*
X122900000Y-148100000D01*
X122900000Y-147300000D01*
X122200000Y-146600000D01*
X121300000Y-146600000D01*
X120800000Y-146100000D01*
X120800000Y-141700000D01*
X121200000Y-141300000D01*
X123792937Y-141300000D01*
X124200000Y-141707063D01*
%TA.AperFunction,Conductor*%
G36*
X124200000Y-141707063D02*
G01*
X124200000Y-145200000D01*
X124800000Y-145800000D01*
X126200000Y-145800000D01*
X126700000Y-146300000D01*
X126700000Y-148300000D01*
X126700000Y-148400000D01*
X126400000Y-148700000D01*
X123500000Y-148700000D01*
X122900000Y-148100000D01*
X122900000Y-147300000D01*
X122200000Y-146600000D01*
X121300000Y-146600000D01*
X120800000Y-146100000D01*
X120800000Y-141700000D01*
X121200000Y-141300000D01*
X123792937Y-141300000D01*
X124200000Y-141707063D01*
G37*
%TD.AperFunction*%
X124900000Y-132700000D02*
X126700000Y-132700000D01*
X127600000Y-132700000D01*
X128000000Y-133100000D01*
X130100000Y-133100000D01*
X130300000Y-133300000D01*
X130300000Y-134600000D01*
X130200000Y-134700000D01*
X124100000Y-134700000D01*
X123100000Y-135700000D01*
X121300000Y-135700000D01*
X121000000Y-135400000D01*
X121000000Y-133400000D01*
X121000000Y-133300000D01*
X121300000Y-133000000D01*
X123800000Y-133000000D01*
X124300000Y-132500000D01*
X124700000Y-132500000D01*
X124900000Y-132700000D01*
%TA.AperFunction,Conductor*%
G36*
X124900000Y-132700000D02*
G01*
X126700000Y-132700000D01*
X127600000Y-132700000D01*
X128000000Y-133100000D01*
X130100000Y-133100000D01*
X130300000Y-133300000D01*
X130300000Y-134600000D01*
X130200000Y-134700000D01*
X124100000Y-134700000D01*
X123100000Y-135700000D01*
X121300000Y-135700000D01*
X121000000Y-135400000D01*
X121000000Y-133400000D01*
X121000000Y-133300000D01*
X121300000Y-133000000D01*
X123800000Y-133000000D01*
X124300000Y-132500000D01*
X124700000Y-132500000D01*
X124900000Y-132700000D01*
G37*
%TD.AperFunction*%
%TD*%
D11*
%TO.P,P1,S1,SHIELD*%
%TO.N,GND*%
X129967868Y-121967868D03*
D12*
%TO.P,P1,A12,GND*%
X136137868Y-121127868D03*
%TO.P,P1,A11,RX2+*%
%TO.N,unconnected-(P1-RX2+-PadA11)*%
X135637868Y-121127868D03*
%TO.P,P1,A10,RX2-*%
%TO.N,unconnected-(P1-RX2--PadA10)*%
X135137868Y-121127868D03*
%TO.P,P1,A9,VBUS*%
%TO.N,Net-(U1-VBUS)*%
X134637868Y-121127868D03*
%TO.P,P1,A8,SBU1*%
%TO.N,unconnected-(P1-SBU1-PadA8)*%
X134137868Y-121127868D03*
%TO.P,P1,A7,D-*%
%TO.N,/DM-*%
X133637868Y-121127868D03*
%TO.P,P1,A6,D+*%
%TO.N,/DP+*%
X133137868Y-121127868D03*
%TO.P,P1,A5,CC*%
%TO.N,Net-(P1-CC)*%
X132637868Y-121127868D03*
%TO.P,P1,A4,VBUS*%
%TO.N,Net-(U1-VBUS)*%
X132137868Y-121127868D03*
%TO.P,P1,A3,TX1-*%
%TO.N,unconnected-(P1-TX1--PadA3)*%
X131637868Y-121127868D03*
%TO.P,P1,A2,TX1+*%
%TO.N,unconnected-(P1-TX1+-PadA2)*%
X131137868Y-121127868D03*
%TO.P,P1,A1,GND*%
%TO.N,GND*%
X130637868Y-121127868D03*
%TD*%
D13*
%TO.P,LED2,1,K*%
%TO.N,Net-(LED2-K)*%
X139800000Y-122325000D03*
%TO.P,LED2,2,A*%
%TO.N,+3.3V*%
X139800000Y-120275000D03*
%TD*%
D14*
%TO.P,LED1,1,K*%
%TO.N,Net-(LED1-K)*%
X127725000Y-125100000D03*
%TO.P,LED1,2,A*%
%TO.N,+5V_USB*%
X125675000Y-125100000D03*
%TD*%
D15*
%TO.P,C2,1*%
%TO.N,+3.3V*%
X126100000Y-138162500D03*
%TO.P,C2,2*%
%TO.N,GND*%
X126100000Y-140237500D03*
%TD*%
D16*
%TO.P,R13,1*%
%TO.N,Net-(U5-VBUS)*%
X122900000Y-131600000D03*
%TO.P,R13,2*%
%TO.N,GND*%
X122900000Y-133600000D03*
%TD*%
D17*
%TO.P,C7,1*%
%TO.N,+5V_USB*%
X129500000Y-136165000D03*
%TO.P,C7,2*%
%TO.N,GND*%
X129500000Y-134090000D03*
%TD*%
D18*
%TO.P,FID3,*%
%TO.N,*%
X121800000Y-147600000D03*
%TD*%
D19*
%TO.P,U4,1,VCCA*%
%TO.N,+3.3V*%
X132950000Y-143730000D03*
%TO.P,U4,2,A1*%
%TO.N,/RX_3V3*%
X133450000Y-143730000D03*
%TO.P,U4,3,A2*%
%TO.N,/CTS_3V3*%
X133950000Y-143730000D03*
%TO.P,U4,4,GND*%
%TO.N,GND*%
X134450000Y-143730000D03*
%TO.P,U4,5,DIR*%
X134450000Y-140930000D03*
%TO.P,U4,6,B2*%
%TO.N,/CTS*%
X133950000Y-140930000D03*
%TO.P,U4,7,B1*%
%TO.N,/RX*%
X133450000Y-140930000D03*
%TO.P,U4,8,VCCB*%
%TO.N,Net-(T1-C)*%
X132950000Y-140930000D03*
%TD*%
D20*
%TO.P,R2,1*%
%TO.N,Net-(T1-C)*%
X143200000Y-144400000D03*
%TO.P,R2,2*%
%TO.N,Net-(U2-+IN)*%
X143200000Y-142400000D03*
%TD*%
%TO.P,R12,1*%
%TO.N,Net-(U5-VBUS)*%
X125800000Y-131600000D03*
%TO.P,R12,2*%
%TO.N,+5V_USB*%
X125800000Y-129600000D03*
%TD*%
D13*
%TO.P,LED3,1,K*%
%TO.N,Net-(LED3-K)*%
X142100000Y-122325000D03*
%TO.P,LED3,2,A*%
%TO.N,+3.3V*%
X142100000Y-120275000D03*
%TD*%
D21*
%TO.P,R10,1*%
%TO.N,Net-(LED2-K)*%
X137900000Y-124500000D03*
%TO.P,R10,2*%
%TO.N,/TX_LED*%
X139900000Y-124500000D03*
%TD*%
D22*
%TO.P,C8,1*%
%TO.N,+3.3V*%
X131837500Y-127400000D03*
%TO.P,C8,2*%
%TO.N,GND*%
X129762500Y-127400000D03*
%TD*%
D18*
%TO.P,FID4,*%
%TO.N,*%
X145300000Y-147800000D03*
%TD*%
D23*
%TO.P,J1,1*%
%TO.N,+5V_USB*%
X141012868Y-147500000D03*
D24*
%TO.P,J1,2*%
%TO.N,/CTS*%
X138472868Y-147500000D03*
%TO.P,J1,3*%
%TO.N,/RTS*%
X135932868Y-147500000D03*
%TO.P,J1,4*%
%TO.N,/VREF*%
X133392868Y-147500000D03*
%TO.P,J1,5*%
%TO.N,/TX*%
X130852868Y-147500000D03*
%TO.P,J1,6*%
%TO.N,/RX*%
X128312868Y-147500000D03*
%TO.P,J1,7*%
%TO.N,GND*%
X125772868Y-147500000D03*
%TD*%
D17*
%TO.P,C4,1*%
%TO.N,+3.3V*%
X131100000Y-144452500D03*
%TO.P,C4,2*%
%TO.N,GND*%
X131100000Y-142377500D03*
%TD*%
D20*
%TO.P,R16,1*%
%TO.N,Net-(U5-RS485{slash}GPIO1)*%
X138700000Y-128500000D03*
%TO.P,R16,2*%
%TO.N,GND*%
X138700000Y-126500000D03*
%TD*%
%TO.P,R15,1*%
%TO.N,Net-(U5-CLK{slash}GPIO0)*%
X136500000Y-128500000D03*
%TO.P,R15,2*%
%TO.N,GND*%
X136500000Y-126500000D03*
%TD*%
D17*
%TO.P,C6,1*%
%TO.N,+5V_USB*%
X122900000Y-129600000D03*
%TO.P,C6,2*%
%TO.N,GND*%
X122900000Y-127512500D03*
%TD*%
D14*
%TO.P,L1,1,1*%
%TO.N,Net-(U1-VBUS)*%
X127725000Y-122902531D03*
%TO.P,L1,2,2*%
%TO.N,+5V_USB*%
X125675000Y-122902531D03*
%TD*%
D16*
%TO.P,R14,1*%
%TO.N,Net-(U5-~{RST})*%
X131700000Y-134097500D03*
%TO.P,R14,2*%
%TO.N,+3.3V*%
X131700000Y-136097500D03*
%TD*%
D25*
%TO.P,R3,1*%
%TO.N,Net-(U2-VOUT)*%
X140600000Y-139300000D03*
%TO.P,R3,2*%
%TO.N,Net-(T1-B)*%
X138600000Y-139300000D03*
%TD*%
D26*
%TO.P,U2,1,nc*%
%TO.N,unconnected-(U2-nc-Pad1)*%
X145205000Y-128225000D03*
%TO.P,U2,2,-IN*%
%TO.N,Net-(U2--IN)*%
X143935000Y-128225000D03*
%TO.P,U2,3,+IN*%
%TO.N,Net-(U2-+IN)*%
X142665000Y-128225000D03*
%TO.P,U2,4,GND*%
%TO.N,GND*%
X141395000Y-128225000D03*
%TO.P,U2,5,nc*%
%TO.N,unconnected-(U2-nc-Pad5)*%
X141395000Y-133175000D03*
%TO.P,U2,6,VOUT*%
%TO.N,Net-(U2-VOUT)*%
X142665000Y-133175000D03*
%TO.P,U2,7,V+*%
%TO.N,+5V_USB*%
X143935000Y-133175000D03*
%TO.P,U2,8,nc*%
%TO.N,unconnected-(U2-nc-Pad8)*%
X145205000Y-133175000D03*
%TD*%
D20*
%TO.P,R5,1*%
%TO.N,/VREF*%
X141100000Y-144400000D03*
%TO.P,R5,2*%
%TO.N,+3.3V*%
X141100000Y-142400000D03*
%TD*%
D22*
%TO.P,C9,1*%
%TO.N,+3.3V*%
X131837500Y-129700000D03*
%TO.P,C9,2*%
%TO.N,GND*%
X129762500Y-129700000D03*
%TD*%
D20*
%TO.P,R8,1*%
%TO.N,Net-(T1-C)*%
X127300000Y-136097500D03*
%TO.P,R8,2*%
%TO.N,GND*%
X127300000Y-134097500D03*
%TD*%
D15*
%TO.P,C5,1*%
%TO.N,Net-(T1-C)*%
X131100000Y-138262500D03*
%TO.P,C5,2*%
%TO.N,GND*%
X131100000Y-140337500D03*
%TD*%
D18*
%TO.P,FID2,*%
%TO.N,*%
X145500000Y-126000000D03*
%TD*%
D19*
%TO.P,U3,1,VCCA*%
%TO.N,Net-(T1-C)*%
X127750000Y-143815000D03*
%TO.P,U3,2,A1*%
%TO.N,/TX*%
X128250000Y-143815000D03*
%TO.P,U3,3,A2*%
%TO.N,/RTS*%
X128750000Y-143815000D03*
%TO.P,U3,4,GND*%
%TO.N,GND*%
X129250000Y-143815000D03*
%TO.P,U3,5,DIR*%
X129250000Y-141015000D03*
%TO.P,U3,6,B2*%
%TO.N,/RTS_3V3*%
X128750000Y-141015000D03*
%TO.P,U3,7,B1*%
%TO.N,/TX_3V3*%
X128250000Y-141015000D03*
%TO.P,U3,8,VCCB*%
%TO.N,+3.3V*%
X127750000Y-141015000D03*
%TD*%
D27*
%TO.P,C1,1*%
%TO.N,+5V_USB*%
X138562500Y-136300000D03*
%TO.P,C1,2*%
%TO.N,GND*%
X140637500Y-136300000D03*
%TD*%
D28*
%TO.P,U1,1,I/O1*%
%TO.N,/DM-*%
X134637500Y-124450000D03*
D29*
%TO.P,U1,2,GND*%
%TO.N,GND*%
X134100000Y-124375000D03*
D28*
%TO.P,U1,3,I/O2*%
%TO.N,/DP+*%
X133562500Y-124450000D03*
%TO.P,U1,4,I/O2*%
%TO.N,/D+*%
X133562500Y-126150000D03*
D29*
%TO.P,U1,5,VBUS*%
%TO.N,Net-(U1-VBUS)*%
X134100000Y-126225000D03*
D28*
%TO.P,U1,6,I/O1*%
%TO.N,/D-*%
X134637500Y-126150000D03*
%TD*%
D25*
%TO.P,R11,1*%
%TO.N,Net-(LED3-K)*%
X144000000Y-124500000D03*
%TO.P,R11,2*%
%TO.N,/RX_LED*%
X142000000Y-124500000D03*
%TD*%
D20*
%TO.P,R7,1*%
%TO.N,/VREF*%
X136200000Y-144400000D03*
%TO.P,R7,2*%
%TO.N,+5V_USB*%
X136200000Y-142400000D03*
%TD*%
%TO.P,R4,1*%
%TO.N,/VREF*%
X138300000Y-144400000D03*
%TO.P,R4,2*%
%TO.N,Net-(U2--IN)*%
X138300000Y-142400000D03*
%TD*%
%TO.P,R6,1*%
%TO.N,Net-(T1-C)*%
X125100000Y-136097500D03*
%TO.P,R6,2*%
%TO.N,GND*%
X125100000Y-134097500D03*
%TD*%
D18*
%TO.P,FID1,*%
%TO.N,*%
X122700000Y-120400000D03*
%TD*%
D30*
%TO.P,T1,1,B*%
%TO.N,Net-(T1-B)*%
X136410000Y-138450000D03*
%TO.P,T1,2,E*%
%TO.N,+5V_USB*%
X136410000Y-136550000D03*
%TO.P,T1,3,C*%
%TO.N,Net-(T1-C)*%
X133790000Y-137500000D03*
%TD*%
D17*
%TO.P,C3,1*%
%TO.N,Net-(T1-C)*%
X126100000Y-144437500D03*
%TO.P,C3,2*%
%TO.N,GND*%
X126100000Y-142362500D03*
%TD*%
D25*
%TO.P,R9,1*%
%TO.N,Net-(LED1-K)*%
X127700000Y-127300000D03*
%TO.P,R9,2*%
%TO.N,GND*%
X125700000Y-127300000D03*
%TD*%
D31*
%TO.P,U5,1,RS485/GPIO1*%
%TO.N,Net-(U5-RS485{slash}GPIO1)*%
X137000000Y-131400000D03*
D32*
%TO.P,U5,2,CLK/GPIO0*%
%TO.N,Net-(U5-CLK{slash}GPIO0)*%
X136500000Y-131100000D03*
%TO.P,U5,3,GND*%
%TO.N,GND*%
X136000000Y-131100000D03*
%TO.P,U5,4,D+*%
%TO.N,/D+*%
X135500000Y-131100000D03*
%TO.P,U5,5,D-*%
%TO.N,/D-*%
X135000000Y-131100000D03*
D31*
%TO.P,U5,6,VDD*%
%TO.N,+3.3V*%
X134500000Y-131400000D03*
D33*
%TO.P,U5,7,VREGIN*%
%TO.N,+5V_USB*%
X134200000Y-131900000D03*
%TO.P,U5,8,VBUS*%
%TO.N,Net-(U5-VBUS)*%
X134200000Y-132400000D03*
%TO.P,U5,9,~{RST}*%
%TO.N,Net-(U5-~{RST})*%
X134200000Y-132900000D03*
%TO.P,U5,10,NC*%
%TO.N,unconnected-(U5-NC-Pad10)*%
X134200000Y-133400000D03*
D31*
%TO.P,U5,11,~{SUSPEND}*%
%TO.N,unconnected-(U5-~{SUSPEND}-Pad11)*%
X134500000Y-133900000D03*
D32*
%TO.P,U5,12,GND*%
%TO.N,GND*%
X135000000Y-134200000D03*
%TO.P,U5,13,~{WAKEUP}*%
%TO.N,+3.3V*%
X135500000Y-134200000D03*
%TO.P,U5,14,SUSPEND*%
%TO.N,unconnected-(U5-SUSPEND-Pad14)*%
X136000000Y-134200000D03*
%TO.P,U5,15,~{CTS}*%
%TO.N,/CTS_3V3*%
X136500000Y-134200000D03*
D31*
%TO.P,U5,16,~{RTS}*%
%TO.N,/RTS_3V3*%
X137000000Y-133900000D03*
D33*
%TO.P,U5,17,RXD*%
%TO.N,/RX_3V3*%
X137300000Y-133400000D03*
%TO.P,U5,18,TXD*%
%TO.N,/TX_3V3*%
X137300000Y-132900000D03*
%TO.P,U5,19,~{RXT}/GPIO3*%
%TO.N,/RX_LED*%
X137300000Y-132400000D03*
%TO.P,U5,20,~{TXT}/GPIO2*%
%TO.N,/TX_LED*%
X137300000Y-131900000D03*
D34*
%TO.P,U5,21,GND*%
%TO.N,GND*%
X135750000Y-132650000D03*
%TD*%
D25*
%TO.P,R1,1*%
%TO.N,GND*%
X131800000Y-125100000D03*
%TO.P,R1,2*%
%TO.N,Net-(P1-CC)*%
X129800000Y-125100000D03*
%TD*%
D35*
%TO.N,+5V_USB*%
X138200000Y-140700000D03*
X140300000Y-134700000D03*
X128400000Y-137200000D03*
X124300000Y-129600000D03*
%TO.N,GND*%
X123400000Y-146200000D03*
X133300000Y-135200000D03*
X128300000Y-129200000D03*
X127200000Y-132900000D03*
X130900000Y-122300000D03*
X123700000Y-144600000D03*
X122950000Y-122750000D03*
X135900000Y-122500000D03*
X130200000Y-141400000D03*
X124500000Y-132900000D03*
X135400000Y-139800000D03*
X138000000Y-137800000D03*
X124150000Y-121550000D03*
X142700000Y-135500000D03*
X127800000Y-142500000D03*
X124400000Y-127400000D03*
X122900000Y-135000000D03*
X141400000Y-126500000D03*
X122000000Y-123700000D03*
X126100000Y-141300000D03*
X136500000Y-125100000D03*
X132700000Y-123600000D03*
X133800000Y-128700000D03*
%TO.N,+3.3V*%
X144500000Y-121900000D03*
X139800000Y-143200000D03*
X133100000Y-136100000D03*
X131900000Y-131000000D03*
X132753903Y-126695167D03*
X130000000Y-145100000D03*
X127700000Y-139000000D03*
%TO.N,Net-(T1-C)*%
X142200000Y-145400000D03*
X132942007Y-139700000D03*
%TO.N,/CTS*%
X134300000Y-142300000D03*
%TO.N,/RX*%
X132600000Y-142300000D03*
%TO.N,/RTS*%
X134200000Y-145300000D03*
%TO.N,Net-(U1-VBUS)*%
X131771019Y-122471019D03*
X134637868Y-122300000D03*
%TO.N,/D-*%
X134825000Y-129752617D03*
X134525000Y-127500000D03*
%TO.N,/D+*%
X133675000Y-127500000D03*
X135675000Y-129752617D03*
%TO.N,Net-(U2-+IN)*%
X142700000Y-126500000D03*
X141100000Y-140700000D03*
%TO.N,Net-(U2--IN)*%
X143933178Y-129700000D03*
X139700000Y-141400000D03*
%TO.N,/TX_3V3*%
X128250000Y-139800000D03*
X138710037Y-133262520D03*
%TO.N,/RTS_3V3*%
X128735130Y-142302045D03*
X137600000Y-134800000D03*
%TO.N,/CTS_3V3*%
X132500000Y-145100000D03*
X136500000Y-135300000D03*
%TO.N,/RX_3V3*%
X133450227Y-142700000D03*
X138400000Y-134000000D03*
%TD*%
D36*
%TO.N,+5V_USB*%
X129500000Y-136165000D02*
X129435000Y-136165000D01*
X143935000Y-131535000D02*
X143935000Y-133175000D01*
D37*
X130983643Y-131400000D02*
X131483643Y-131900000D01*
D36*
X126744516Y-129600000D02*
X124300000Y-129600000D01*
X138200000Y-140700000D02*
X136600000Y-140700000D01*
X138312500Y-136550000D02*
X138562500Y-136300000D01*
X143300000Y-130900000D02*
X143935000Y-131535000D01*
X124300000Y-129600000D02*
X122912500Y-129600000D01*
X121800000Y-129600000D02*
X121300000Y-129100000D01*
X138562500Y-135237500D02*
X138562500Y-136300000D01*
X128544516Y-131400000D02*
X126744516Y-129600000D01*
X121300000Y-126000000D02*
X122200000Y-125100000D01*
X140300000Y-134700000D02*
X140300000Y-131820074D01*
X140300000Y-131820074D02*
X141220074Y-130900000D01*
X122912500Y-129600000D02*
X122900000Y-129587500D01*
X136600000Y-140700000D02*
X136200000Y-141100000D01*
X136200000Y-141100000D02*
X136200000Y-142400000D01*
D37*
X131483643Y-131900000D02*
X134200000Y-131900000D01*
D36*
X122200000Y-125100000D02*
X125675000Y-125100000D01*
X125675000Y-125100000D02*
X125675000Y-122902531D01*
D37*
X130500000Y-131400000D02*
X130983643Y-131400000D01*
D36*
X139100000Y-134700000D02*
X138562500Y-135237500D01*
X141220074Y-130900000D02*
X143300000Y-130900000D01*
X130500000Y-131400000D02*
X128544516Y-131400000D01*
X121300000Y-129100000D02*
X121300000Y-126000000D01*
X140300000Y-134700000D02*
X139100000Y-134700000D01*
X124300000Y-129600000D02*
X121800000Y-129600000D01*
X129435000Y-136165000D02*
X128400000Y-137200000D01*
X136410000Y-136550000D02*
X138312500Y-136550000D01*
D37*
%TO.N,GND*%
X124164186Y-121535814D02*
X124150000Y-121550000D01*
D10*
X134450000Y-143730000D02*
X134426000Y-143706000D01*
D36*
X141900000Y-136300000D02*
X140637500Y-136300000D01*
D10*
X134426000Y-143354049D02*
X134964807Y-142815242D01*
D37*
X128832017Y-121967868D02*
X128832017Y-121967831D01*
D36*
X129762500Y-127400000D02*
X129762500Y-129700000D01*
D37*
X133800000Y-128700000D02*
X134276207Y-128700000D01*
D36*
X129762500Y-127400000D02*
X129762500Y-127291030D01*
D37*
X134500000Y-135200000D02*
X135000000Y-134700000D01*
D10*
X134964807Y-141939404D02*
X134450000Y-141424597D01*
D37*
X133700000Y-125300000D02*
X133100000Y-125300000D01*
D36*
X129762500Y-127291030D02*
X131800000Y-125253530D01*
D37*
X134276207Y-128700000D02*
X136476207Y-126500000D01*
X122950000Y-122750000D02*
X122000000Y-123700000D01*
D36*
X132900000Y-125100000D02*
X131800000Y-125100000D01*
X142700000Y-135500000D02*
X141900000Y-136300000D01*
D10*
X130900000Y-122300000D02*
X130300000Y-122300000D01*
D36*
X133300000Y-135200000D02*
X134500000Y-135200000D01*
X129500000Y-134090000D02*
X123390000Y-134090000D01*
D10*
X135000000Y-134200000D02*
X135000000Y-133400000D01*
D37*
X135000000Y-134700000D02*
X135000000Y-134200000D01*
D10*
X134100000Y-124900000D02*
X133700000Y-125300000D01*
D36*
X141395000Y-126505000D02*
X141400000Y-126500000D01*
D10*
X135700000Y-122500000D02*
X136137868Y-122062132D01*
X136137868Y-122062132D02*
X136137868Y-121456499D01*
D36*
X131800000Y-125253530D02*
X131800000Y-125100000D01*
D37*
X129967868Y-121967868D02*
X128832017Y-121967868D01*
D36*
X140200000Y-137800000D02*
X138000000Y-137800000D01*
D10*
X134100000Y-124375000D02*
X134100000Y-124900000D01*
D36*
X140637500Y-137362500D02*
X140200000Y-137800000D01*
X141395000Y-128225000D02*
X141395000Y-126505000D01*
D37*
X128400000Y-121535814D02*
X128000000Y-121535814D01*
X128832017Y-121967831D02*
X128400000Y-121535814D01*
D10*
X136000000Y-132400000D02*
X135750000Y-132650000D01*
D36*
X133100000Y-125300000D02*
X132900000Y-125100000D01*
D37*
X124150000Y-121550000D02*
X122950000Y-122750000D01*
D10*
X134964807Y-142815242D02*
X134964807Y-141939404D01*
D36*
X140637500Y-136300000D02*
X140637500Y-137362500D01*
X123390000Y-134090000D02*
X122900000Y-133600000D01*
D10*
X130300000Y-122300000D02*
X129967868Y-121967868D01*
X136000000Y-131100000D02*
X136000000Y-132400000D01*
X134426000Y-143706000D02*
X134426000Y-143354049D01*
X134450000Y-141424597D02*
X134450000Y-140930000D01*
D37*
X136476207Y-126500000D02*
X136500000Y-126500000D01*
D10*
X135000000Y-133400000D02*
X135750000Y-132650000D01*
D37*
X128400000Y-121535814D02*
X124164186Y-121535814D01*
D36*
%TO.N,+3.3V*%
X127262500Y-138162500D02*
X126100000Y-138162500D01*
X135500000Y-135525929D02*
X134928429Y-136097500D01*
D37*
X131100000Y-144452500D02*
X131283001Y-144452500D01*
D36*
X131900000Y-131000000D02*
X131900000Y-129762500D01*
X130000000Y-145100000D02*
X130452500Y-145100000D01*
X134928429Y-136097500D02*
X131700000Y-136097500D01*
X130452500Y-145100000D02*
X131100000Y-144452500D01*
D37*
X135500000Y-134200000D02*
X135500000Y-135100000D01*
D36*
X143775000Y-120275000D02*
X144500000Y-121000000D01*
D10*
X127750000Y-140250000D02*
X127492379Y-139992379D01*
D36*
X135500000Y-135100000D02*
X135500000Y-135525929D01*
D10*
X127492379Y-139992379D02*
X127492379Y-139613568D01*
D36*
X131837500Y-127400000D02*
X132049070Y-127400000D01*
X132049070Y-127400000D02*
X132753903Y-126695167D01*
X132800000Y-129700000D02*
X133900000Y-130800000D01*
X140600000Y-142400000D02*
X141100000Y-142400000D01*
X127700000Y-139000000D02*
X127700000Y-138600000D01*
X127700000Y-138600000D02*
X127262500Y-138162500D01*
X131900000Y-129762500D02*
X131837500Y-129700000D01*
X144500000Y-121000000D02*
X144500000Y-121900000D01*
X142100000Y-120275000D02*
X143775000Y-120275000D01*
D10*
X127700000Y-139405947D02*
X127700000Y-139000000D01*
D36*
X139800000Y-143200000D02*
X140600000Y-142400000D01*
D37*
X131283001Y-144452500D02*
X132005501Y-143730000D01*
D10*
X127750000Y-141015000D02*
X127750000Y-140250000D01*
D36*
X139800000Y-120275000D02*
X142100000Y-120275000D01*
X131837500Y-129700000D02*
X132800000Y-129700000D01*
D10*
X127492379Y-139613568D02*
X127700000Y-139405947D01*
D37*
X133900000Y-130800000D02*
X134500000Y-131400000D01*
X132005501Y-143730000D02*
X132924000Y-143730000D01*
D36*
X131837500Y-129700000D02*
X131837500Y-127400000D01*
D37*
%TO.N,Net-(T1-C)*%
X128462500Y-138262500D02*
X127300000Y-137100000D01*
X132037500Y-138262500D02*
X131100000Y-138262500D01*
X126262500Y-144437500D02*
X126885000Y-143815000D01*
X131100000Y-138262500D02*
X128462500Y-138262500D01*
X126885000Y-143815000D02*
X127724000Y-143815000D01*
X133790000Y-137500000D02*
X133790000Y-138310000D01*
X132942007Y-139700000D02*
X132942007Y-139758364D01*
X126000000Y-144437500D02*
X126262500Y-144437500D01*
X132800000Y-137500000D02*
X132037500Y-138262500D01*
X133790000Y-137500000D02*
X132800000Y-137500000D01*
X127300000Y-136097500D02*
X125100000Y-136097500D01*
X132942007Y-139157993D02*
X132942007Y-139700000D01*
X125833596Y-144437500D02*
X124800000Y-143403904D01*
D10*
X132950000Y-139766357D02*
X132942007Y-139758364D01*
D37*
X124800000Y-136397500D02*
X125100000Y-136097500D01*
X127300000Y-137100000D02*
X127300000Y-136097500D01*
X126000000Y-144437500D02*
X125833596Y-144437500D01*
X124800000Y-143403904D02*
X124800000Y-136397500D01*
X142200000Y-145400000D02*
X143200000Y-144400000D01*
X133790000Y-138310000D02*
X132942007Y-139157993D01*
D10*
X132950000Y-140930000D02*
X132950000Y-139766357D01*
%TO.N,/CTS*%
X133950000Y-141950000D02*
X133950000Y-140930000D01*
X134300000Y-142300000D02*
X133950000Y-141950000D01*
D36*
%TO.N,/VREF*%
X136200000Y-144400000D02*
X136200000Y-144471654D01*
X133392868Y-147278786D02*
X133392868Y-147500000D01*
X136200000Y-144400000D02*
X140866667Y-144400000D01*
X136200000Y-144471654D02*
X133392868Y-147278786D01*
D10*
%TO.N,/RX*%
X133450000Y-140930000D02*
X133450000Y-141850000D01*
X133000000Y-142300000D02*
X132600000Y-142300000D01*
X133450000Y-141850000D02*
X133000000Y-142300000D01*
%TO.N,/RTS*%
X128750000Y-144950000D02*
X128750000Y-143815000D01*
D37*
X129723791Y-145923791D02*
X128750000Y-144950000D01*
X133576209Y-145923791D02*
X129723791Y-145923791D01*
X134200000Y-145300000D02*
X133576209Y-145923791D01*
D10*
%TO.N,/TX*%
X128250000Y-143815000D02*
X128250000Y-144950000D01*
D37*
X130493494Y-147500000D02*
X130800000Y-147500000D01*
X128250000Y-144950000D02*
X128250000Y-145256506D01*
D10*
X130800000Y-147500000D02*
X130852868Y-147500000D01*
D37*
X128250000Y-145256506D02*
X130493494Y-147500000D01*
D36*
%TO.N,Net-(U1-VBUS)*%
X135600000Y-124913010D02*
X135600000Y-123800000D01*
D37*
X132137868Y-122104169D02*
X132137868Y-121978868D01*
D36*
X134925625Y-123125625D02*
X134925625Y-122587757D01*
D10*
X134100000Y-125600000D02*
X134376209Y-125323791D01*
D36*
X129063697Y-123163697D02*
X131078340Y-123163697D01*
D10*
X134376209Y-125323791D02*
X134695166Y-125323791D01*
D37*
X131078340Y-123163697D02*
X131771019Y-122471019D01*
D36*
X135600000Y-123800000D02*
X134925625Y-123125625D01*
X135189219Y-125323791D02*
X135600000Y-124913010D01*
D10*
X134100000Y-126225000D02*
X134100000Y-125600000D01*
X134637868Y-121127868D02*
X134637868Y-122300000D01*
D36*
X128802531Y-122902531D02*
X129063697Y-123163697D01*
X134695166Y-125323791D02*
X135189219Y-125323791D01*
X127725000Y-122902531D02*
X128802531Y-122902531D01*
X134925625Y-122587757D02*
X134637868Y-122300000D01*
D37*
X131771019Y-122471019D02*
X132137868Y-122104169D01*
D10*
X132137868Y-121127868D02*
X132137868Y-121978868D01*
D37*
%TO.N,Net-(P1-CC)*%
X129800000Y-124100000D02*
X130074208Y-123825792D01*
X129800000Y-125100000D02*
X129800000Y-124100000D01*
X130074208Y-123825792D02*
X131362095Y-123825792D01*
D10*
X132637868Y-121999000D02*
X132638868Y-122000000D01*
X132637868Y-121127868D02*
X132637868Y-121999000D01*
D37*
X131362095Y-123825792D02*
X132638868Y-122549019D01*
X132638868Y-122549019D02*
X132638868Y-122000000D01*
D10*
%TO.N,/D-*%
X134637500Y-126150000D02*
X134637500Y-126662500D01*
X134500000Y-126800000D02*
X134325001Y-126974999D01*
X134325001Y-127300001D02*
X134525000Y-127500000D01*
X135000000Y-129927617D02*
X134825000Y-129752617D01*
X135000000Y-131100000D02*
X135000000Y-129927617D01*
X134637500Y-126662500D02*
X134500000Y-126800000D01*
X134325001Y-126974999D02*
X134325001Y-127300001D01*
%TO.N,/D+*%
X133874999Y-127300001D02*
X133675000Y-127500000D01*
X133562500Y-126150000D02*
X133562500Y-126682699D01*
X133874999Y-126995198D02*
X133874999Y-127300001D01*
X135500000Y-129927617D02*
X135675000Y-129752617D01*
X133562500Y-126682699D02*
X133874999Y-126995198D01*
X135500000Y-131100000D02*
X135500000Y-129927617D01*
D37*
%TO.N,Net-(U2-+IN)*%
X143200000Y-142200000D02*
X143200000Y-142400000D01*
X141100000Y-140700000D02*
X141700000Y-140700000D01*
D10*
X142665000Y-126535000D02*
X142700000Y-126500000D01*
D37*
X141700000Y-140700000D02*
X143200000Y-142200000D01*
D10*
X142665000Y-128225000D02*
X142665000Y-126535000D01*
D37*
%TO.N,Net-(T1-B)*%
X136410000Y-138450000D02*
X136726208Y-138450000D01*
X137576208Y-139300000D02*
X138600000Y-139300000D01*
X136726208Y-138450000D02*
X137576208Y-139300000D01*
%TO.N,Net-(U2-VOUT)*%
X143400000Y-135792100D02*
X141908364Y-137283736D01*
X141908364Y-137283736D02*
X141908364Y-137991636D01*
X141908364Y-137991636D02*
X140600000Y-139300000D01*
X142665000Y-134371877D02*
X143400000Y-135106877D01*
X143400000Y-135106877D02*
X143400000Y-135792100D01*
X142665000Y-133175000D02*
X142665000Y-134371877D01*
%TO.N,Net-(U2--IN)*%
X138700000Y-142400000D02*
X138300000Y-142400000D01*
X139700000Y-141400000D02*
X138700000Y-142400000D01*
D10*
X143933178Y-129700000D02*
X143933178Y-128226822D01*
D37*
X138466667Y-142400000D02*
X138500000Y-142366667D01*
D10*
X143933178Y-128226822D02*
X143935000Y-128225000D01*
D37*
%TO.N,/TX_LED*%
X139976579Y-124589591D02*
X139983085Y-124583085D01*
X138000001Y-131900000D02*
X138400000Y-131500000D01*
D10*
X139983085Y-124583085D02*
X139900000Y-124500000D01*
D37*
X139976579Y-129923422D02*
X139976579Y-124589591D01*
X137300000Y-131900000D02*
X138000001Y-131900000D01*
X138400000Y-131500000D02*
X139976579Y-129923422D01*
%TO.N,/RX_LED*%
X138344237Y-132400000D02*
X140531041Y-130213196D01*
X140531041Y-130213196D02*
X140531041Y-125968959D01*
X140531041Y-125968959D02*
X142000000Y-124500000D01*
X137300000Y-132400000D02*
X138344237Y-132400000D01*
D36*
%TO.N,Net-(U5-VBUS)*%
X128300000Y-132400000D02*
X127500000Y-131600000D01*
X127500000Y-131600000D02*
X122900000Y-131600000D01*
D37*
X134200000Y-132400000D02*
X130500000Y-132400000D01*
D36*
X130500000Y-132400000D02*
X128300000Y-132400000D01*
D37*
%TO.N,Net-(U5-~{RST})*%
X134200000Y-132900000D02*
X132897500Y-132900000D01*
X132897500Y-132900000D02*
X131700000Y-134097500D01*
%TO.N,Net-(U5-CLK{slash}GPIO0)*%
X136500000Y-131100000D02*
X136500000Y-128500000D01*
%TO.N,Net-(U5-RS485{slash}GPIO1)*%
X137000000Y-131400000D02*
X137000000Y-130200000D01*
X137000000Y-130200000D02*
X138700000Y-128500000D01*
%TO.N,/TX_3V3*%
X138710037Y-133262520D02*
X138347517Y-132900000D01*
D10*
X128250000Y-141015000D02*
X128250000Y-139800000D01*
D37*
X138347517Y-132900000D02*
X137300000Y-132900000D01*
%TO.N,/RTS_3V3*%
X137000000Y-134200000D02*
X137600000Y-134800000D01*
D10*
X128735130Y-141029870D02*
X128750000Y-141015000D01*
D37*
X137000000Y-133900000D02*
X137000000Y-134200000D01*
D10*
X128735130Y-142302045D02*
X128735130Y-141029870D01*
%TO.N,/CTS_3V3*%
X133800000Y-144700000D02*
X133950000Y-144550000D01*
D37*
X133400000Y-145100000D02*
X132500000Y-145100000D01*
D10*
X133950000Y-144550000D02*
X133950000Y-143730000D01*
D37*
X133800000Y-144700000D02*
X133400000Y-145100000D01*
X136500000Y-134200000D02*
X136500000Y-135300000D01*
%TO.N,/RX_3V3*%
X137800000Y-133400000D02*
X138400000Y-134000000D01*
D10*
X133450000Y-142700227D02*
X133450227Y-142700000D01*
D37*
X137300000Y-133400000D02*
X137800000Y-133400000D01*
D10*
X133450000Y-143730000D02*
X133450000Y-142700227D01*
D36*
%TO.N,Net-(LED1-K)*%
X127700000Y-125125000D02*
X127725000Y-125100000D01*
X127700000Y-127300000D02*
X127700000Y-125125000D01*
D37*
%TO.N,Net-(LED2-K)*%
X138775000Y-122325000D02*
X139800000Y-122325000D01*
X137900000Y-123200000D02*
X138775000Y-122325000D01*
X137900000Y-124500000D02*
X137900000Y-123200000D01*
%TO.N,Net-(LED3-K)*%
X142100000Y-122325000D02*
X143425000Y-122325000D01*
X143425000Y-122325000D02*
X144000000Y-122900000D01*
X144000000Y-122900000D02*
X144000000Y-124500000D01*
D10*
%TO.N,/DP+*%
X133562500Y-124450000D02*
X133562500Y-123911435D01*
X133875000Y-123598935D02*
X133875000Y-123206881D01*
X133162868Y-122494749D02*
X133162868Y-121902869D01*
X133162868Y-121902869D02*
X133137868Y-121877869D01*
X133875000Y-123206881D02*
X133162868Y-122494749D01*
X133137868Y-121877869D02*
X133137868Y-121127868D01*
X133562500Y-123911435D02*
X133875000Y-123598935D01*
%TO.N,/DM-*%
X133612868Y-121902869D02*
X133637868Y-121877869D01*
X133637868Y-121877869D02*
X133637868Y-121127868D01*
X133612868Y-122308355D02*
X133612868Y-121902869D01*
X134637500Y-123908793D02*
X134325000Y-123596293D01*
X134325000Y-123596293D02*
X134325000Y-123020487D01*
X134637500Y-124450000D02*
X134637500Y-123908793D01*
X134325000Y-123020487D02*
X133612868Y-122308355D01*
%TD*%
%TA.AperFunction,Conductor*%
%TO.N,/VREF*%
G36*
X134304059Y-146030126D02*
G01*
X134641561Y-146367628D01*
X134644988Y-146375901D01*
X134641826Y-146383901D01*
X134561787Y-146469324D01*
X134552133Y-146479629D01*
X134539299Y-146493326D01*
X134455296Y-146599226D01*
X134393663Y-146696723D01*
X134393658Y-146696732D01*
X134350557Y-146789134D01*
X134322120Y-146879794D01*
X134322118Y-146879802D01*
X134304492Y-146972045D01*
X134304491Y-146972049D01*
X134286224Y-147174661D01*
X134272065Y-147356866D01*
X134271975Y-147357666D01*
X134228327Y-147653671D01*
X134223730Y-147661356D01*
X134215045Y-147663539D01*
X134214481Y-147663441D01*
X133396930Y-147501650D01*
X133389479Y-147496683D01*
X133389465Y-147496662D01*
X132927367Y-146803354D01*
X132925630Y-146794569D01*
X132930614Y-146787129D01*
X132930941Y-146786919D01*
X133116864Y-146672727D01*
X133117682Y-146672270D01*
X133285611Y-146587468D01*
X133286397Y-146587109D01*
X133433343Y-146526744D01*
X133433819Y-146526563D01*
X133566744Y-146479629D01*
X133566770Y-146479630D01*
X133566767Y-146479621D01*
X133673133Y-146442345D01*
X133866455Y-146357400D01*
X133960125Y-146302267D01*
X134060388Y-146231544D01*
X134172245Y-146139049D01*
X134287752Y-146029894D01*
X134296117Y-146026704D01*
X134304059Y-146030126D01*
G37*
%TD.AperFunction*%
%TD*%
%TA.AperFunction,Conductor*%
%TO.N,/TX*%
G36*
X129622828Y-146416457D02*
G01*
X129672170Y-146461340D01*
X129725397Y-146509758D01*
X129725400Y-146509760D01*
X129725404Y-146509764D01*
X129789468Y-146555696D01*
X129827664Y-146583083D01*
X129827666Y-146583084D01*
X129827669Y-146583086D01*
X129868528Y-146604242D01*
X129923541Y-146632728D01*
X130015192Y-146662498D01*
X130015199Y-146662499D01*
X130104778Y-146676201D01*
X130194463Y-146677641D01*
X130194464Y-146677640D01*
X130194476Y-146677641D01*
X130382831Y-146658956D01*
X130546031Y-146640597D01*
X130547095Y-146640527D01*
X130774968Y-146635898D01*
X130776658Y-146635986D01*
X131006236Y-146664771D01*
X131014018Y-146669199D01*
X131016389Y-146677834D01*
X131016257Y-146678650D01*
X130854518Y-147495937D01*
X130849551Y-147503388D01*
X130849530Y-147503402D01*
X130156243Y-147965487D01*
X130147458Y-147967224D01*
X130140018Y-147962240D01*
X130139772Y-147961854D01*
X130027949Y-147778961D01*
X130027452Y-147778063D01*
X129945221Y-147612513D01*
X129944829Y-147611634D01*
X129887100Y-147466576D01*
X129886886Y-147465993D01*
X129842484Y-147334483D01*
X129842475Y-147334456D01*
X129806856Y-147228130D01*
X129806852Y-147228121D01*
X129806851Y-147228117D01*
X129726207Y-147039116D01*
X129673247Y-146947601D01*
X129604998Y-146849791D01*
X129515624Y-146741067D01*
X129515616Y-146741058D01*
X129410239Y-146629345D01*
X129407055Y-146620976D01*
X129410476Y-146613045D01*
X129606683Y-146416838D01*
X129614955Y-146413412D01*
X129622828Y-146416457D01*
G37*
%TD.AperFunction*%
%TD*%
M02*
