%TF.GenerationSoftware,KiCad,Pcbnew,9.0.4*%
%TF.CreationDate,2025-09-03T14:58:50+05:30*%
%TF.ProjectId,usb-c serieal kicad,7573622d-6320-4736-9572-6965616c206b,rev?*%
%TF.SameCoordinates,Original*%
%TF.FileFunction,Paste,Top*%
%TF.FilePolarity,Positive*%
%FSLAX46Y46*%
G04 Gerber Fmt 4.6, Leading zero omitted, Abs format (unit mm)*
G04 Created by KiCad (PCBNEW 9.0.4) date 2025-09-03 14:58:50*
%MOMM*%
%LPD*%
G01*
G04 APERTURE LIST*
G04 Aperture macros list*
%AMRoundRect*
0 Rectangle with rounded corners*
0 $1 Rounding radius*
0 $2 $3 $4 $5 $6 $7 $8 $9 X,Y pos of 4 corners*
0 Add a 4 corners polygon primitive as box body*
4,1,4,$2,$3,$4,$5,$6,$7,$8,$9,$2,$3,0*
0 Add four circle primitives for the rounded corners*
1,1,$1+$1,$2,$3*
1,1,$1+$1,$4,$5*
1,1,$1+$1,$6,$7*
1,1,$1+$1,$8,$9*
0 Add four rect primitives between the rounded corners*
20,1,$1+$1,$2,$3,$4,$5,0*
20,1,$1+$1,$4,$5,$6,$7,0*
20,1,$1+$1,$6,$7,$8,$9,0*
20,1,$1+$1,$8,$9,$2,$3,0*%
G04 Aperture macros list end*
%ADD10R,0.700000X1.150000*%
%ADD11R,0.380000X1.000000*%
%ADD12RoundRect,0.250000X0.450000X-0.325000X0.450000X0.325000X-0.450000X0.325000X-0.450000X-0.325000X0*%
%ADD13RoundRect,0.250000X0.325000X0.450000X-0.325000X0.450000X-0.325000X-0.450000X0.325000X-0.450000X0*%
%ADD14RoundRect,0.250000X-0.475000X0.337500X-0.475000X-0.337500X0.475000X-0.337500X0.475000X0.337500X0*%
%ADD15RoundRect,0.250000X-0.450000X0.350000X-0.450000X-0.350000X0.450000X-0.350000X0.450000X0.350000X0*%
%ADD16RoundRect,0.250000X0.475000X-0.337500X0.475000X0.337500X-0.475000X0.337500X-0.475000X-0.337500X0*%
%ADD17RoundRect,0.087500X0.087500X-0.537500X0.087500X0.537500X-0.087500X0.537500X-0.087500X-0.537500X0*%
%ADD18RoundRect,0.250000X0.450000X-0.350000X0.450000X0.350000X-0.450000X0.350000X-0.450000X-0.350000X0*%
%ADD19RoundRect,0.250000X-0.350000X-0.450000X0.350000X-0.450000X0.350000X0.450000X-0.350000X0.450000X0*%
%ADD20RoundRect,0.250000X0.337500X0.475000X-0.337500X0.475000X-0.337500X-0.475000X0.337500X-0.475000X0*%
%ADD21RoundRect,0.250000X0.350000X0.450000X-0.350000X0.450000X-0.350000X-0.450000X0.350000X-0.450000X0*%
%ADD22RoundRect,0.150000X-0.150000X0.825000X-0.150000X-0.825000X0.150000X-0.825000X0.150000X0.825000X0*%
%ADD23RoundRect,0.250000X-0.337500X-0.475000X0.337500X-0.475000X0.337500X0.475000X-0.337500X0.475000X0*%
%ADD24RoundRect,0.093750X-0.093750X0.156250X-0.093750X-0.156250X0.093750X-0.156250X0.093750X0.156250X0*%
%ADD25RoundRect,0.075000X-0.075000X0.250000X-0.075000X-0.250000X0.075000X-0.250000X0.075000X0.250000X0*%
%ADD26RoundRect,0.162500X0.447500X0.162500X-0.447500X0.162500X-0.447500X-0.162500X0.447500X-0.162500X0*%
%ADD27R,0.540000X0.540000*%
%ADD28R,0.300000X0.300000*%
%ADD29R,0.300000X0.900000*%
%ADD30R,0.900000X0.300000*%
G04 APERTURE END LIST*
D10*
%TO.C,P1*%
X129967868Y-121967868D03*
D11*
X136137868Y-121127868D03*
X135637868Y-121127868D03*
X135137868Y-121127868D03*
X134637868Y-121127868D03*
X134137868Y-121127868D03*
X133637868Y-121127868D03*
X133137868Y-121127868D03*
X132637868Y-121127868D03*
X132137868Y-121127868D03*
X131637868Y-121127868D03*
X131137868Y-121127868D03*
X130637868Y-121127868D03*
%TD*%
D12*
%TO.C,LED2*%
X139800000Y-122325000D03*
X139800000Y-120275000D03*
%TD*%
D13*
%TO.C,LED1*%
X127725000Y-125100000D03*
X125675000Y-125100000D03*
%TD*%
D14*
%TO.C,C2*%
X126100000Y-138162500D03*
X126100000Y-140237500D03*
%TD*%
D15*
%TO.C,R13*%
X122900000Y-131600000D03*
X122900000Y-133600000D03*
%TD*%
D16*
%TO.C,C7*%
X129500000Y-136165000D03*
X129500000Y-134090000D03*
%TD*%
D17*
%TO.C,U4*%
X132950000Y-143730000D03*
X133450000Y-143730000D03*
X133950000Y-143730000D03*
X134450000Y-143730000D03*
X134450000Y-140930000D03*
X133950000Y-140930000D03*
X133450000Y-140930000D03*
X132950000Y-140930000D03*
%TD*%
D18*
%TO.C,R2*%
X143200000Y-144400000D03*
X143200000Y-142400000D03*
%TD*%
%TO.C,R12*%
X125800000Y-131600000D03*
X125800000Y-129600000D03*
%TD*%
D12*
%TO.C,LED3*%
X142100000Y-122325000D03*
X142100000Y-120275000D03*
%TD*%
D19*
%TO.C,R10*%
X137900000Y-124500000D03*
X139900000Y-124500000D03*
%TD*%
D20*
%TO.C,C8*%
X131837500Y-127400000D03*
X129762500Y-127400000D03*
%TD*%
D16*
%TO.C,C4*%
X131100000Y-144452500D03*
X131100000Y-142377500D03*
%TD*%
D18*
%TO.C,R16*%
X138700000Y-128500000D03*
X138700000Y-126500000D03*
%TD*%
%TO.C,R15*%
X136500000Y-128500000D03*
X136500000Y-126500000D03*
%TD*%
D16*
%TO.C,C6*%
X122900000Y-129600000D03*
X122900000Y-127512500D03*
%TD*%
D13*
%TO.C,L1*%
X127725000Y-122902531D03*
X125675000Y-122902531D03*
%TD*%
D15*
%TO.C,R14*%
X131700000Y-134097500D03*
X131700000Y-136097500D03*
%TD*%
D21*
%TO.C,R3*%
X140600000Y-139300000D03*
X138600000Y-139300000D03*
%TD*%
D22*
%TO.C,U2*%
X145205000Y-128225000D03*
X143935000Y-128225000D03*
X142665000Y-128225000D03*
X141395000Y-128225000D03*
X141395000Y-133175000D03*
X142665000Y-133175000D03*
X143935000Y-133175000D03*
X145205000Y-133175000D03*
%TD*%
D18*
%TO.C,R5*%
X141100000Y-144400000D03*
X141100000Y-142400000D03*
%TD*%
D20*
%TO.C,C9*%
X131837500Y-129700000D03*
X129762500Y-129700000D03*
%TD*%
D18*
%TO.C,R8*%
X127300000Y-136097500D03*
X127300000Y-134097500D03*
%TD*%
D14*
%TO.C,C5*%
X131100000Y-138262500D03*
X131100000Y-140337500D03*
%TD*%
D17*
%TO.C,U3*%
X127750000Y-143815000D03*
X128250000Y-143815000D03*
X128750000Y-143815000D03*
X129250000Y-143815000D03*
X129250000Y-141015000D03*
X128750000Y-141015000D03*
X128250000Y-141015000D03*
X127750000Y-141015000D03*
%TD*%
D23*
%TO.C,C1*%
X138562500Y-136300000D03*
X140637500Y-136300000D03*
%TD*%
D24*
%TO.C,U1*%
X134637500Y-124450000D03*
D25*
X134100000Y-124375000D03*
D24*
X133562500Y-124450000D03*
X133562500Y-126150000D03*
D25*
X134100000Y-126225000D03*
D24*
X134637500Y-126150000D03*
%TD*%
D21*
%TO.C,R11*%
X144000000Y-124500000D03*
X142000000Y-124500000D03*
%TD*%
D18*
%TO.C,R7*%
X136200000Y-144400000D03*
X136200000Y-142400000D03*
%TD*%
%TO.C,R4*%
X138300000Y-144400000D03*
X138300000Y-142400000D03*
%TD*%
%TO.C,R6*%
X125100000Y-136097500D03*
X125100000Y-134097500D03*
%TD*%
D26*
%TO.C,T1*%
X136410000Y-138450000D03*
X136410000Y-136550000D03*
X133790000Y-137500000D03*
%TD*%
D16*
%TO.C,C3*%
X126100000Y-144437500D03*
X126100000Y-142362500D03*
%TD*%
D21*
%TO.C,R9*%
X127700000Y-127300000D03*
X125700000Y-127300000D03*
%TD*%
D27*
%TO.C,U5*%
X136200000Y-132200000D03*
X135300000Y-132200000D03*
X136200000Y-133100000D03*
X135300000Y-133100000D03*
D28*
X137000000Y-131400000D03*
D29*
X136500000Y-131100000D03*
X136000000Y-131100000D03*
X135500000Y-131100000D03*
X135000000Y-131100000D03*
D28*
X134500000Y-131400000D03*
D30*
X134200000Y-131900000D03*
X134200000Y-132400000D03*
X134200000Y-132900000D03*
X134200000Y-133400000D03*
D28*
X134500000Y-133900000D03*
D29*
X135000000Y-134200000D03*
X135500000Y-134200000D03*
X136000000Y-134200000D03*
X136500000Y-134200000D03*
D28*
X137000000Y-133900000D03*
D30*
X137300000Y-133400000D03*
X137300000Y-132900000D03*
X137300000Y-132400000D03*
X137300000Y-131900000D03*
%TD*%
D21*
%TO.C,R1*%
X131800000Y-125100000D03*
X129800000Y-125100000D03*
%TD*%
M02*
