%TF.GenerationSoftware,KiCad,Pcbnew,9.0.4*%
%TF.CreationDate,2025-09-03T14:58:50+05:30*%
%TF.ProjectId,usb-c serieal kicad,7573622d-6320-4736-9572-6965616c206b,rev?*%
%TF.SameCoordinates,Original*%
%TF.FileFunction,Profile,NP*%
%FSLAX46Y46*%
G04 Gerber Fmt 4.6, Leading zero omitted, Abs format (unit mm)*
G04 Created by KiCad (PCBNEW 9.0.4) date 2025-09-03 14:58:50*
%MOMM*%
%LPD*%
G01*
G04 APERTURE LIST*
%TA.AperFunction,Profile*%
%ADD10C,0.050000*%
%TD*%
G04 APERTURE END LIST*
D10*
X121387868Y-122287868D02*
G75*
G02*
X121087868Y-122587868I-299968J-32D01*
G01*
X128987868Y-121087868D02*
G75*
G02*
X128687932Y-120787868I32J299968D01*
G01*
X120687868Y-122587868D02*
X121087868Y-122587868D01*
X145687868Y-122587868D02*
G75*
G02*
X145387932Y-122287868I32J299968D01*
G01*
X136737000Y-121085113D02*
X137687868Y-121087868D01*
X138087868Y-120787868D02*
X138087868Y-119387868D01*
X129087868Y-121087868D02*
X130043595Y-121087868D01*
X120387868Y-122887868D02*
G75*
G02*
X120687868Y-122587868I300032J-32D01*
G01*
X130339775Y-120429502D02*
X130339775Y-120787900D01*
X146087868Y-122587868D02*
G75*
G02*
X146387932Y-122887868I32J-300032D01*
G01*
X130339775Y-120429502D02*
G75*
G02*
X130639775Y-120129475I300025J2D01*
G01*
X128987868Y-121087868D02*
X129087868Y-121087868D01*
X138087868Y-120787868D02*
G75*
G02*
X137787868Y-121087868I-299968J-32D01*
G01*
X145687868Y-122587868D02*
X146087868Y-122587868D01*
X136737043Y-121085113D02*
G75*
G02*
X136436987Y-120785113I-43J300013D01*
G01*
X146387868Y-148787868D02*
G75*
G02*
X146087868Y-149087868I-299968J-32D01*
G01*
X130643824Y-120129502D02*
X136138400Y-120129502D01*
X136138400Y-120128823D02*
G75*
G02*
X136438377Y-120428823I0J-299977D01*
G01*
X128687868Y-120787868D02*
X128687868Y-119387868D01*
X120687868Y-149087868D02*
G75*
G02*
X120387932Y-148787868I32J299968D01*
G01*
X120687868Y-149087868D02*
X146087868Y-149087868D01*
X138087868Y-119387868D02*
G75*
G02*
X138387868Y-119087868I300032J-32D01*
G01*
X136438376Y-120428823D02*
X136437043Y-120790896D01*
X128387868Y-119087868D02*
G75*
G02*
X128687932Y-119387868I32J-300032D01*
G01*
X130339056Y-120785792D02*
G75*
G02*
X130039056Y-121085756I-299956J-8D01*
G01*
X121387868Y-122287868D02*
X121387868Y-119387868D01*
X138387868Y-119087868D02*
X145087868Y-119087868D01*
X120387868Y-122887868D02*
X120387868Y-148787868D01*
X121387868Y-119387868D02*
G75*
G02*
X121687868Y-119087868I300032J-32D01*
G01*
X137687868Y-121087868D02*
X137787868Y-121087868D01*
X145387868Y-122287868D02*
X145387868Y-119387868D01*
X146387868Y-122887868D02*
X146387868Y-148787868D01*
X145087868Y-119087868D02*
G75*
G02*
X145387932Y-119387868I32J-300032D01*
G01*
X128387868Y-119087868D02*
X121687868Y-119087868D01*
M02*
